<?xml version="1.0" encoding="utf-8"?>
<!-- Generator: Adobe Illustrator 23.0.0, SVG Export Plug-In . SVG Version: 6.00 Build 0)  -->
<svg version="1.1" id="Layer_1" xmlns="http://www.w3.org/2000/svg" xmlns:xlink="http://www.w3.org/1999/xlink" x="0px" y="0px"
	 viewBox="0 0 863 103" style="enable-background:new 0 0 863 103;" xml:space="preserve">
<style type="text/css">
	.st0{enable-background:new    ;}
	.st1{fill:none;stroke:#FFFFFF;stroke-width:2;stroke-miterlimit:10;}
</style>
<title>bay</title>
<g class="st0">
	<path class="st1" d="M66.4,51.7v4c0,11.2-9.1,20.3-20.3,20.3c-3.7,0-7-1-10-2.7c-3,1.7-6.5,2.7-10.1,2.7
		c-11.2,0-20.3-9.1-20.3-20.3v-4c0-16,10.8-29.9,24.3-36.5h12.2C55.6,21.8,66.4,35.7,66.4,51.7z M54.3,51.7
		c0-12.1-7.5-22.4-18.1-26.4c-10.7,4.1-18.2,14.4-18.2,26.4v4c0,2.1,0.8,4.1,2.4,5.8c1.9,1.9,4.7,2.7,7.3,2.2
		c1.4-0.4,2.9-1.1,4.1-2.2c2.4-2.4,6.4-2.4,8.8,0c1.2,1.2,2.6,1.8,4.1,2.2c2.5,0.5,5.3-0.3,7.3-2.2c1.5-1.6,2.3-3.7,2.3-5.8V51.7z
		 M36.1,82c-2.2,0-4.1,1.8-4.1,4.1c0,2.2,1.8,4.1,4.1,4.1c2.2,0,4.1-1.8,4.1-4.1C40.2,83.8,38.3,82,36.1,82z"/>
	<path class="st1" d="M136.7,35.5v14.2c-4.1,2.6-8.8,4.1-13.9,4.1c-9.6,0-14.9-2.5-19.4-4.7c-3.9-1.9-6.9-3.4-13.5-3.4
		c-6,0-11,2.5-13.9,6.1V37.4c4.1-2.5,8.9-4,13.9-4c9.4,0,14.4,2.4,18.8,4.6c4.1,1.9,7.1,3.5,14.1,3.5
		C128.8,41.5,133.6,38.9,136.7,35.5z"/>
	<path class="st1" d="M207.1,15.2v12.2c-4.1,1.5-6.1,4.3-6.1,8.1v14.2c0,14.5-11.8,26.2-26.2,26.2c-11.2,0-20.3-9.1-20.3-20.2V35.5
		h-8.1V23.3h20.3v32.3c0,4.5,3.7,8.1,8.1,8.1c7.8,0,14.1-6.3,14.1-14.1V35.5C188.8,25,196.8,16.3,207.1,15.2z M176.8,19.3
		c-2.2,0-4.1-1.7-4.1-4.1c0-2.2,1.8-4,4.1-4c2.2,0,4.1,1.7,4.1,4C180.8,17.5,179,19.3,176.8,19.3z"/>
	<path class="st1" d="M277.4,45.6c0,0.7,0,1.4-0.1,2h-12.2c0.1-0.7,0.1-1.4,0.1-2c0-7.2-4.1-13.4-10.2-16.4c0.1,0.8,0.1,1.4,0.1,2.2
		c0,7.1-3.2,11.1-5.1,13.4c-0.1,0.1-0.3,0.3-0.4,0.5c0.1,0.1,0.3,0.3,0.4,0.5c2.7,3.1,7.1,8.2,7.1,17.9c0,4.4-1,8.6-3,12.2H239
		c3.4-2.4,6.1-7.7,6.1-12.2c0-5.2-2-7.5-4.1-10c-1.8-1.9-4-4.4-4-8.1c0-4.1,2.2-6.8,3.7-8.6c1.5-1.7,2.4-2.8,2.4-5.6
		c0-1.4-0.5-2.4-1.3-3.3c-7.4,2.3-12.9,9.3-12.9,17.5c0,0.7,0.1,1.4,0.1,2h-12.2c0-0.7-0.1-1.4-0.1-2c0-16.8,13.6-30.4,30.4-30.4
		C263.8,15.2,277.4,28.8,277.4,45.6z M249.5,88l3.7,3.6l-2.5,2.5l-3.6-3.7l-3.7,3.7l-2.4-2.5l3.7-3.6l-3.7-3.7l2.4-2.4l3.7,3.7
		l3.6-3.7l2.5,2.4L249.5,88z"/>
	<path class="st1" d="M367,15.2v12.2c-4.4,0-8.1,3.7-8.1,8.1v14.2c0,1.4-0.1,2.8-0.3,4.1c-1.3,7.5-5.7,14-11.9,17.9
		c-4.1,2.6-8.9,4.1-14.1,4.1c-2.1,0-4.1-0.3-6.1-0.7c-4.6-1.2-8.8-3.5-12.2-6.7v-25h-8.1V31.4h8.1v-4.1h-8.1V15.2h20.3v47.2
		c1.8,0.9,3.9,1.4,6.1,1.4c7.8,0,14.1-6.3,14.1-14.1V35.5c0-2.5,0.5-4.9,1.4-7.1c1.9-5.1,5.9-9.3,10.8-11.4
		C361.4,15.9,364.1,15.2,367,15.2z"/>
	<path class="st1" d="M434.6,46.8c0,2.1-0.4,4.1-1,6.1h-13.4c1.4-1.6,2.2-4,2.2-6.1c0-2.8-2.2-5.1-5-5.1c-2.6,0-3.7,1-6.2,3.7
		c-2.6,2.8-6.6,7-13.8,7.4c-2.7,10.5-12.2,18.2-23.5,18.2V58.9c6.8,0,12.2-5.4,12.2-12.1c0-6.8-5.4-12.2-12.2-12.2V22.5
		c11.3,0,20.7,7.7,23.5,18.1c1.8-0.3,2.9-1.4,4.9-3.6c2.8-3,7-7.4,15.1-7.4C426.9,29.7,434.6,37.3,434.6,46.8z M416.3,63.3l-3.6,3.7
		l3.6,3.7l-2.4,2.4l-3.6-3.7l-3.7,3.7l-2.4-2.4l3.6-3.7l-3.6-3.7l2.4-2.4l3.7,3.7l3.6-3.7L416.3,63.3z"/>
	<path class="st1" d="M527,51.7v4c0,11.2-9.1,20.3-20.3,20.3c-3.7,0-7-1-10-2.7c-3,1.7-6.5,2.7-10.1,2.7c-11.2,0-20.3-9.1-20.3-20.3
		v-4c0-16,10.8-29.9,24.3-36.5h12.2C516.2,21.8,527,35.7,527,51.7z M514.8,51.7c0-12.1-7.5-22.4-18.1-26.4
		c-10.7,4.1-18.2,14.4-18.2,26.4v4c0,2.1,0.8,4.1,2.4,5.8c1.9,1.9,4.7,2.7,7.3,2.2c1.4-0.4,2.9-1.1,4.1-2.2c2.4-2.4,6.4-2.4,8.8,0
		c1.2,1.2,2.6,1.8,4.1,2.2c2.5,0.5,5.3-0.3,7.3-2.2c1.5-1.6,2.3-3.7,2.3-5.8V51.7z"/>
	<path class="st1" d="M597.3,15.2v12.2c-4.1,1.5-6.1,4.3-6.1,8.1v14.2c0,14.5-11.8,26.2-26.2,26.2c-11.2,0-20.3-9.1-20.3-20.2V35.5
		h-8.1V23.3h20.3v32.3c0,4.5,3.7,8.1,8.1,8.1c7.8,0,14.1-6.3,14.1-14.1V35.5C579.1,25,587.1,16.3,597.3,15.2z M569.4,88l3.7,3.6
		l-2.5,2.5l-3.6-3.7l-3.7,3.7l-2.4-2.5l3.7-3.6l-3.7-3.7l2.4-2.4l3.7,3.7l3.6-3.7l2.5,2.4L569.4,88z"/>
	<path class="st1" d="M667.7,51.7v4c0,11.2-9.1,20.3-20.3,20.3c-3.7,0-7-1-10-2.7c-3,1.7-6.5,2.7-10.1,2.7
		c-11.2,0-20.3-9.1-20.3-20.3v-4c0-16,10.8-29.9,24.3-36.5h12.2C656.9,21.8,667.7,35.7,667.7,51.7z M655.5,51.7
		c0-12.1-7.5-22.4-18.1-26.4c-10.7,4.1-18.2,14.4-18.2,26.4v4c0,2.1,0.8,4.1,2.4,5.8c1.9,1.9,4.7,2.7,7.3,2.2
		c1.4-0.4,2.9-1.1,4.1-2.2c2.4-2.4,6.4-2.4,8.8,0c1.2,1.2,2.6,1.8,4.1,2.2c2.5,0.5,5.3-0.3,7.3-2.2c1.5-1.6,2.3-3.7,2.3-5.8V51.7z"
		/>
	<path class="st1" d="M738,15.2v12.2c-4.1,1.5-6.1,4.3-6.1,8.1v14.2c0,14.5-11.8,26.2-26.2,26.2c-11.2,0-20.3-9.1-20.3-20.2V35.5
		h-8.1V23.3h20.3v32.3c0,4.5,3.7,8.1,8.1,8.1c7.8,0,14.1-6.3,14.1-14.1V35.5C719.8,25,727.8,16.3,738,15.2z M707.7,19.3
		c-2.2,0-4.1-1.7-4.1-4.1c0-2.2,1.8-4,4.1-4s4.1,1.7,4.1,4C711.8,17.5,709.9,19.3,707.7,19.3z"/>
	<path class="st1" d="M808.3,45.6c0,0.7,0,1.4-0.1,2h-12.2c0.1-0.7,0.1-1.4,0.1-2c0-7.2-4.1-13.4-10.2-16.4c0.1,0.8,0.1,1.4,0.1,2.2
		c0,7.1-3.2,11.1-5.1,13.4c-0.1,0.1-0.3,0.3-0.4,0.5c0.1,0.1,0.3,0.3,0.4,0.5c2.7,3.1,7.1,8.2,7.1,17.9c0,4.4-1,8.6-3,12.2h-15.1
		c3.4-2.4,6.1-7.7,6.1-12.2c0-5.2-2-7.5-4.1-10c-1.8-1.9-4-4.4-4-8.1c0-4.1,2.2-6.8,3.7-8.6c1.5-1.7,2.4-2.8,2.4-5.6
		c0-1.4-0.5-2.4-1.3-3.3c-7.4,2.3-12.9,9.3-12.9,17.5c0,0.7,0.1,1.4,0.1,2h-12.2c0-0.7-0.1-1.4-0.1-2c0-16.8,13.6-30.4,30.4-30.4
		C794.7,15.2,808.3,28.8,808.3,45.6z M780.4,88l3.7,3.6l-2.5,2.5l-3.6-3.7l-3.7,3.7l-2.4-2.5l3.7-3.6l-3.7-3.7l2.4-2.4l3.7,3.7
		l3.6-3.7l2.5,2.4L780.4,88z"/>
</g>
</svg>
