<?xml version="1.0" encoding="utf-8"?>
<!-- Generator: Adobe Illustrator 23.0.0, SVG Export Plug-In . SVG Version: 6.00 Build 0)  -->
<svg version="1.1" id="Layer_1" xmlns="http://www.w3.org/2000/svg" xmlns:xlink="http://www.w3.org/1999/xlink" x="0px" y="0px"
	 viewBox="0 0 845.9 103.3" style="enable-background:new 0 0 845.9 103.3;" xml:space="preserve">
<style type="text/css">
	.st0{enable-background:new    ;}
	.st1{fill:#F3BE00;}
</style>
<title>bay</title>
<g class="st0">
	<path class="st1" d="M67.5,55.8v4c0,11.2-9.1,20.3-20.3,20.3c-3.7,0-7-1-10-2.7c-3,1.7-6.5,2.7-10.1,2.7C15.9,80,6.8,70.9,6.8,59.7
		v-4c0-16,10.8-29.9,24.3-36.5h12.2C56.7,25.9,67.5,39.8,67.5,55.8z M55.4,55.8c0-12.1-7.5-22.4-18.1-26.4
		C26.5,33.4,19,43.7,19,55.8v4c0,2.1,0.8,4.1,2.4,5.8c1.9,1.9,4.7,2.7,7.3,2.2c1.4-0.4,2.9-1.1,4.1-2.2c2.4-2.4,6.4-2.4,8.8,0
		c1.2,1.2,2.6,1.8,4.1,2.2c2.5,0.5,5.3-0.3,7.3-2.2c1.5-1.6,2.3-3.7,2.3-5.8V55.8z M37.2,86.1c-2.2,0-4.1,1.8-4.1,4.1
		c0,2.2,1.8,4.1,4.1,4.1c2.2,0,4.1-1.8,4.1-4.1C41.3,87.9,39.4,86.1,37.2,86.1z"/>
	<path class="st1" d="M137.8,39.6v14.2c-4.1,2.6-8.8,4.1-13.9,4.1c-9.6,0-14.9-2.5-19.4-4.7c-3.9-1.9-6.9-3.4-13.5-3.4
		c-6,0-11,2.5-13.9,6.1V41.5c4.1-2.5,8.9-4,13.9-4c9.4,0,14.4,2.4,18.8,4.6c4.1,1.9,7.1,3.5,14.1,3.5
		C129.9,45.7,134.7,43.1,137.8,39.6z"/>
	<path class="st1" d="M208.2,19.3v12.2c-4.1,1.5-6.1,4.3-6.1,8.1v14.2c0,14.5-11.8,26.2-26.2,26.2c-11.2,0-20.3-9.1-20.3-20.2V39.6
		h-8.1V27.4h20.3v32.3c0,4.5,3.7,8.1,8.1,8.1c7.8,0,14.1-6.3,14.1-14.1V39.6C189.9,29.2,197.9,20.4,208.2,19.3z M177.9,23.4
		c-2.2,0-4.1-1.7-4.1-4.1c0-2.2,1.8-4,4.1-4c2.2,0,4.1,1.7,4.1,4C181.9,21.6,180.1,23.4,177.9,23.4z"/>
	<path class="st1" d="M278.5,49.7c0,0.7,0,1.4-0.1,2h-12.2c0.1-0.7,0.1-1.4,0.1-2c0-7.2-4.1-13.4-10.2-16.4c0.1,0.8,0.1,1.4,0.1,2.2
		c0,7.1-3.2,11.1-5.1,13.4c-0.1,0.1-0.3,0.3-0.4,0.5c0.1,0.1,0.3,0.3,0.4,0.5c2.7,3.1,7.1,8.2,7.1,17.9c0,4.4-1,8.6-3,12.2h-15.1
		c3.4-2.4,6.1-7.7,6.1-12.2c0-5.2-2-7.5-4.1-10c-1.8-1.9-4-4.4-4-8.1c0-4.1,2.2-6.8,3.7-8.6c1.5-1.7,2.4-2.8,2.4-5.6
		c0-1.4-0.5-2.4-1.3-3.3c-7.4,2.3-12.9,9.3-12.9,17.5c0,0.7,0.1,1.4,0.1,2h-12.2c0-0.7-0.1-1.4-0.1-2c0-16.8,13.6-30.4,30.4-30.4
		C264.9,19.3,278.5,32.9,278.5,49.7z M250.6,92.2l3.7,3.6l-2.5,2.5l-3.6-3.7l-3.7,3.7l-2.4-2.5l3.7-3.6l-3.7-3.7l2.4-2.4l3.7,3.7
		l3.6-3.7l2.5,2.4L250.6,92.2z"/>
	<path class="st1" d="M368.1,19.3v12.2c-4.4,0-8.1,3.7-8.1,8.1v14.2c0,1.4-0.1,2.8-0.3,4.1c-1.3,7.5-5.7,14-11.9,17.9
		c-4.1,2.6-8.9,4.1-14.1,4.1c-2.1,0-4.1-0.3-6.1-0.7c-4.6-1.2-8.8-3.5-12.2-6.7v-25h-8.1V35.5h8.1v-4.1h-8.1V19.3h20.3v47.2
		c1.8,0.9,3.9,1.4,6.1,1.4c7.8,0,14.1-6.3,14.1-14.1V39.6c0-2.5,0.5-4.9,1.4-7.1c1.9-5.1,5.9-9.3,10.8-11.4
		C362.5,20,365.2,19.3,368.1,19.3z"/>
	<path class="st1" d="M435.7,51c0,2.1-0.4,4.1-1,6.1h-13.4c1.4-1.6,2.2-4,2.2-6.1c0-2.8-2.2-5.1-5-5.1c-2.6,0-3.7,1-6.2,3.7
		c-2.6,2.8-6.6,7-13.8,7.4c-2.7,10.5-12.2,18.2-23.5,18.2V63c6.8,0,12.2-5.4,12.2-12.1c0-6.8-5.4-12.2-12.2-12.2V26.7
		c11.3,0,20.7,7.7,23.5,18.1c1.8-0.3,2.9-1.4,4.9-3.6c2.8-3,7-7.4,15.1-7.4C428,33.8,435.7,41.4,435.7,51z M417.4,67.5l-3.6,3.7
		l3.6,3.7l-2.4,2.4l-3.6-3.7l-3.7,3.7l-2.4-2.4l3.6-3.7l-3.6-3.7l2.4-2.4l3.7,3.7l3.6-3.7L417.4,67.5z"/>
	<path class="st1" d="M528.1,55.8v4c0,11.2-9.1,20.3-20.3,20.3c-3.7,0-7-1-10-2.7c-3,1.7-6.5,2.7-10.1,2.7
		c-11.2,0-20.3-9.1-20.3-20.3v-4c0-16,10.8-29.9,24.3-36.5h12.2C517.3,25.9,528.1,39.8,528.1,55.8z M515.9,55.8
		c0-12.1-7.5-22.4-18.1-26.4c-10.7,4.1-18.2,14.4-18.2,26.4v4c0,2.1,0.8,4.1,2.4,5.8c1.9,1.9,4.7,2.7,7.3,2.2
		c1.4-0.4,2.9-1.1,4.1-2.2c2.4-2.4,6.4-2.4,8.8,0c1.2,1.2,2.6,1.8,4.1,2.2c2.5,0.5,5.3-0.3,7.3-2.2c1.5-1.6,2.3-3.7,2.3-5.8V55.8z"
		/>
	<path class="st1" d="M598.4,19.3v12.2c-4.1,1.5-6.1,4.3-6.1,8.1v14.2c0,14.5-11.8,26.2-26.2,26.2c-11.2,0-20.3-9.1-20.3-20.2V39.6
		h-8.1V27.4H558v32.3c0,4.5,3.7,8.1,8.1,8.1c7.8,0,14.1-6.3,14.1-14.1V39.6C580.2,29.2,588.2,20.4,598.4,19.3z M570.5,92.2l3.7,3.6
		l-2.5,2.5l-3.6-3.7l-3.7,3.7l-2.4-2.5l3.7-3.6l-3.7-3.7l2.4-2.4l3.7,3.7l3.6-3.7l2.5,2.4L570.5,92.2z"/>
	<path class="st1" d="M668.8,55.8v4c0,11.2-9.1,20.3-20.3,20.3c-3.7,0-7-1-10-2.7c-3,1.7-6.5,2.7-10.1,2.7
		c-11.2,0-20.3-9.1-20.3-20.3v-4c0-16,10.8-29.9,24.3-36.5h12.2C658,25.9,668.8,39.8,668.8,55.8z M656.6,55.8
		c0-12.1-7.5-22.4-18.1-26.4c-10.7,4.1-18.2,14.4-18.2,26.4v4c0,2.1,0.8,4.1,2.4,5.8c1.9,1.9,4.7,2.7,7.3,2.2
		c1.4-0.4,2.9-1.1,4.1-2.2c2.4-2.4,6.4-2.4,8.8,0c1.2,1.2,2.6,1.8,4.1,2.2c2.5,0.5,5.3-0.3,7.3-2.2c1.5-1.6,2.3-3.7,2.3-5.8V55.8z"
		/>
	<path class="st1" d="M739.1,19.3v12.2c-4.1,1.5-6.1,4.3-6.1,8.1v14.2c0,14.5-11.8,26.2-26.2,26.2c-11.2,0-20.3-9.1-20.3-20.2V39.6
		h-8.1V27.4h20.3v32.3c0,4.5,3.7,8.1,8.1,8.1c7.8,0,14.1-6.3,14.1-14.1V39.6C720.9,29.2,728.9,20.4,739.1,19.3z M708.8,23.4
		c-2.2,0-4.1-1.7-4.1-4.1c0-2.2,1.8-4,4.1-4s4.1,1.7,4.1,4C712.9,21.6,711,23.4,708.8,23.4z"/>
	<path class="st1" d="M809.4,49.7c0,0.7,0,1.4-0.1,2h-12.2c0.1-0.7,0.1-1.4,0.1-2c0-7.2-4.1-13.4-10.2-16.4c0.1,0.8,0.1,1.4,0.1,2.2
		c0,7.1-3.2,11.1-5.1,13.4c-0.1,0.1-0.3,0.3-0.4,0.5c0.1,0.1,0.3,0.3,0.4,0.5c2.7,3.1,7.1,8.2,7.1,17.9c0,4.4-1,8.6-3,12.2H771
		c3.4-2.4,6.1-7.7,6.1-12.2c0-5.2-2-7.5-4.1-10c-1.8-1.9-4-4.4-4-8.1c0-4.1,2.2-6.8,3.7-8.6c1.5-1.7,2.4-2.8,2.4-5.6
		c0-1.4-0.5-2.4-1.3-3.3c-7.4,2.3-12.9,9.3-12.9,17.5c0,0.7,0.1,1.4,0.1,2h-12.2c0-0.7-0.1-1.4-0.1-2c0-16.8,13.6-30.4,30.4-30.4
		C795.8,19.3,809.4,32.9,809.4,49.7z M781.5,92.2l3.7,3.6l-2.5,2.5l-3.6-3.7l-3.7,3.7l-2.4-2.5l3.7-3.6l-3.7-3.7l2.4-2.4l3.7,3.7
		l3.6-3.7l2.5,2.4L781.5,92.2z"/>
</g>
</svg>
