<svg id="baybayin-circle" data-name="Layer 2" xmlns="http://www.w3.org/2000/svg" viewBox="0 0 1067.88 1038.87"><defs><style>.cls-1{fill:none;stroke:#ffffff;stroke-miterlimit:10;stroke-width:2px;}</style></defs><title>baybayin-circle</title><path class="cls-1" d="M51.29,636.5l3.38-.86a17.85,17.85,0,0,1,21.68,12.93,17.4,17.4,0,0,1-.14,9.15,17.86,17.86,0,0,1-8.42,29.75l-3.38.86c-13.68,3.46-27.88-2.76-36.4-12.88l-2.63-10.38C28.08,652.19,37.61,640,51.29,636.5Zm2.63,10.38a24.93,24.93,0,0,0-18.66,21.21A24.89,24.89,0,0,0,61.78,678l3.38-.86a7.08,7.08,0,0,0,4.42-3.31,7.28,7.28,0,0,0,.31-6.74,7.67,7.67,0,0,0-2.77-3,5.49,5.49,0,0,1-1.9-7.5,7.7,7.7,0,0,0,1-4,7.45,7.45,0,0,0-3.48-5.79,7.37,7.37,0,0,0-5.45-.72Zm29.79,8.94a3.57,3.57,0,1,0,2.59-4.33A3.59,3.59,0,0,0,83.71,655.82Z" transform="translate(-6.06 -20.57)"/><path class="cls-1" d="M28.93,575.87l12.4-1.51a22.42,22.42,0,0,1,5,11.72,34.35,34.35,0,0,1-2.07,17.47,22.69,22.69,0,0,0-1.51,12.17,15.63,15.63,0,0,0,6.79,11.5l-12.49,1.52A23.65,23.65,0,0,1,32.13,617a32.79,32.79,0,0,1,2-16.94c1.26-3.75,2.28-6.62,1.54-12.69A16.41,16.41,0,0,0,28.93,575.87Z" transform="translate(-6.06 -20.57)"/><path class="cls-1" d="M14.11,537.3a3.53,3.53,0,1,1-3.51-3.63A3.54,3.54,0,0,1,14.11,537.3ZM11,510.55l10.71.18c1.3,3.67,3.74,5.41,7.06,5.47l12.49.2A23.13,23.13,0,0,1,64,539.89a17.82,17.82,0,0,1-18,17.56l-17.85-.29L28,564.3l-10.71-.17.29-17.85,28.47.46a7.12,7.12,0,0,0,7.25-7,12.36,12.36,0,0,0-12.2-12.61l-12.5-.21A18,18,0,0,1,11,510.55Z" transform="translate(-6.06 -20.57)"/><path class="cls-1" d="M45,448.15a13.27,13.27,0,0,1,1.76.32l-1.38,10.62a13.27,13.27,0,0,0-1.76-.32,16.06,16.06,0,0,0-15.49,7.08A15.7,15.7,0,0,1,30,466a17.14,17.14,0,0,1,11.14,6,1.53,1.53,0,0,0,.38.39,1.74,1.74,0,0,1,.46-.28c3-2,8-5.31,16.49-4.2a21.51,21.51,0,0,1,10.28,4l-1.72,13.23a14.43,14.43,0,0,0-9.93-6.68c-4.55-.6-6.8.91-9.23,2.48-1.9,1.38-4.33,2.95-7.53,2.54-3.54-.46-5.65-2.71-7.09-4.18s-2.17-2.42-4.62-2.74a4.21,4.21,0,0,0-3,.72,16.19,16.19,0,0,0,13.79,13.28c.59.08,1.19.07,1.78.14l-1.38,10.63c-.59-.08-1.19-.07-1.78-.15a26.73,26.73,0,1,1,6.88-53Zm33.93,29.18,3.53-2.8L84.33,477l-3.61,2.71,2.79,3.61L81,485.15l-2.7-3.61-3.62,2.79L72.89,482l3.61-2.79-2.79-3.54,2.39-1.91Z" transform="translate(-6.06 -20.57)"/><path class="cls-1" d="M40.4,362.28l10.26,3.07a7.17,7.17,0,0,0,4.79,8.89l12,3.58a25.23,25.23,0,0,1,3.42,1.3A23.38,23.38,0,0,1,83,393.67a22.85,22.85,0,0,1-.06,12.93,27,27,0,0,1-2.11,5,24.06,24.06,0,0,1-8.69,8.58l-21.08-6.32-2,6.84-10.26-3.07,2-6.84-3.42-1-2,6.84-10.26-3.08,5.12-17.09L70,408.32a12.46,12.46,0,0,0-5.66-20.24l-12-3.58a17.22,17.22,0,0,1-5.69-2.95,17.79,17.79,0,0,1-6.88-12A18.28,18.28,0,0,1,40.4,362.28Z" transform="translate(-6.06 -20.57)"/><path class="cls-1" d="M91.28,314.31a18.83,18.83,0,0,1,4.55,2.95L91,328.06a8.75,8.75,0,0,0-4.1-4A4.46,4.46,0,0,0,81,326.31c-.93,2.09-.53,3.29.75,6.28s3.32,7.8,1,13.76a21.36,21.36,0,0,1,6.26,25.48l-9.79-4.35a10.67,10.67,0,1,0-19.49-8.67L50,354.47A21.53,21.53,0,0,1,73,342c.43-1.58,0-2.81-1.11-5.23-1.41-3.33-3.46-8.33-.6-14.78A15.11,15.11,0,0,1,91.28,314.31ZM98,334.89l1.68,4.19,4.22-1.56,1.08,2.8-4.23,1.56,1.64,4.27-2.8,1.07L98,343l-4.23,1.56-1.08-2.8,4.26-1.64L95.24,336Z" transform="translate(-6.06 -20.57)"/><path class="cls-1" d="M138.24,245.59l2.92,1.91a17.84,17.84,0,0,1,5.15,24.71,17.27,17.27,0,0,1-6.83,6.09,17.66,17.66,0,0,1-2.9,8.77,17.85,17.85,0,0,1-24.71,5.16L109,290.32c-11.81-7.72-16.84-22.39-15.15-35.52l5.86-9C111,239.12,126.43,237.86,138.24,245.59Zm-5.87,9a24.91,24.91,0,0,0-28.24.62,24.87,24.87,0,0,0,10.69,26.19l2.92,1.91a7.08,7.08,0,0,0,5.43,1,7.28,7.28,0,0,0,5.17-4.34,7.7,7.7,0,0,0,.32-4.06,5.5,5.5,0,0,1,4.24-6.47,7.66,7.66,0,0,0,3.64-2,7.49,7.49,0,0,0,1.9-6.48,7.33,7.33,0,0,0-3.15-4.5Z" transform="translate(-6.06 -20.57)"/><path class="cls-1" d="M154.09,176.52l8.15,6.95c-1.33,3.66-.56,6.55,2,8.7l9.52,8.1a23.17,23.17,0,0,1,2.61,32.6,17.84,17.84,0,0,1-25.1,2.07l-13.59-11.58L133,228.8l-8.15-6.94,11.57-13.59,21.68,18.46a7.12,7.12,0,0,0,10.06-.81,12.36,12.36,0,0,0-1.4-17.49l-9.51-8.1A18,18,0,0,1,154.09,176.52ZM187,236.83l4.49-.41.24,3.11-4.49.3.36,4.55-3.06.19-.3-4.5-4.55.37-.24-3,4.55-.37-.42-4.48,3.05-.31Z" transform="translate(-6.06 -20.57)"/><path class="cls-1" d="M224.61,154.52,227,157.1a17.84,17.84,0,0,1-1.16,25.21,17.29,17.29,0,0,1-8.13,4.2,17.87,17.87,0,0,1-30.21,6.63l-2.35-2.58c-9.51-10.42-10.73-25.88-5.83-38.17l7.91-7.22C199.81,141.47,215.1,144.1,224.61,154.52Zm-7.92,7.22a24.9,24.9,0,0,0-27.5-6.43,24.87,24.87,0,0,0,3.83,28l2.35,2.58a7.07,7.07,0,0,0,5,2.33,7.3,7.3,0,0,0,6.09-2.91,7.88,7.88,0,0,0,1.32-3.85,5.49,5.49,0,0,1,5.71-5.21,7.79,7.79,0,0,0,4-1,7.47,7.47,0,0,0,3.46-5.8,7.38,7.38,0,0,0-1.94-5.15Z" transform="translate(-6.06 -20.57)"/><path class="cls-1" d="M257.14,91.56l6.17,8.75c-2.2,3.22-2.17,6.21-.26,8.92l7.2,10.22a23.14,23.14,0,0,1-5.58,32.21,17.84,17.84,0,0,1-24.83-4.24l-10.28-14.59L223.73,137l-6.17-8.76,14.59-10.28,16.4,23.27a7.13,7.13,0,0,0,9.95,1.73,12.36,12.36,0,0,0,3-17.29l-7.2-10.22A18,18,0,0,1,257.14,91.56Zm-19.76,18.29a3.52,3.52,0,1,1,.87-5A3.53,3.53,0,0,1,237.38,109.85Z" transform="translate(-6.06 -20.57)"/><path class="cls-1" d="M328.42,83.09a12,12,0,0,1,.76,1.62l-9.46,5a11.41,11.41,0,0,0-.76-1.62,16,16,0,0,0-14.73-8.54,15.74,15.74,0,0,1,1,1.68,17.15,17.15,0,0,1,1.56,12.55,1.9,1.9,0,0,0-.11.54,1.58,1.58,0,0,1,.5.21c3.38,1.29,8.95,3.44,13,11a21.58,21.58,0,0,1,2.69,10.7L311,122.52a14.48,14.48,0,0,0-.29-12c-2.15-4.06-4.68-5-7.37-6.1-2.22-.74-4.91-1.82-6.42-4.67-1.67-3.16-1.06-6.17-.69-8.2s.72-3.17-.44-5.35a4.14,4.14,0,0,0-2.33-2,16.2,16.2,0,0,0-2.85,18.92c.28.53.63,1,.91,1.54l-9.46,5c-.28-.53-.63-1-.91-1.54a26.73,26.73,0,1,1,47.23-25Zm-4.18,44.55,4.33,1.26-.92,3-4.29-1.38L322,134.88l-2.91-1,1.38-4.29-4.37-1.34.88-2.87,4.37,1.34,1.26-4.33,2.95.84Z" transform="translate(-6.06 -20.57)"/><path class="cls-1" d="M343.82,51.42l4.7-1.82,18.1,47-4.71,1.81Zm14-5.41L376,93l-4.71,1.81L353.15,47.82Z" transform="translate(-6.06 -20.57)"/><path class="cls-1" d="M418.85,35.55,421,43.42l-11.12,3,9.05,33L409,82.23l-9.05-33.05-11,3-2.16-7.87Z" transform="translate(-6.06 -20.57)"/><path class="cls-1" d="M461.29,27.19l7.87,41.69L459,70.79,455.73,53.4l-15.8,3,3.29,17.4-10.09,1.9L425.26,34l10.09-1.91,3,16.16,15.8-3-3.05-16.15Z" transform="translate(-6.06 -20.57)"/><path class="cls-1" d="M481.56,33.05l1,8.83,14.25-1.57.84,7.7-14.25,1.56,1,9.36,16.05-1.75.89,8.17-26.24,2.87-4.62-42.17,26.24-2.87.89,8.11Z" transform="translate(-6.06 -20.57)"/><path class="cls-1" d="M549.06,45.67a10.18,10.18,0,0,1,2.35,6.5,10.53,10.53,0,0,1-3.49,8.58q-3.58,3.12-10.36,3.23l-19.74.32-.68-42.42,19.25-.31q6.48-.11,10.07,2.66a9.69,9.69,0,0,1,3.67,8,9.92,9.92,0,0,1-1.94,6.42,9.37,9.37,0,0,1-5.28,3.42A10.64,10.64,0,0,1,549.06,45.67Zm-21.38-6.61L534.4,39c3.55-.06,5.31-1.61,5.26-4.65s-1.89-4.53-5.53-4.47l-6.6.11ZM540.89,50.9a4.44,4.44,0,0,0-1.56-3.54,6.3,6.3,0,0,0-4.28-1.22l-7.26.11.16,9.54,7.32-.11Q541,55.58,540.89,50.9Z" transform="translate(-6.06 -20.57)"/><path class="cls-1" d="M582.52,58l-15.86-1.12-3.18,7.53-10.77-.76,18.47-40.92L583,23.6,595.5,66.72,584.61,66Zm-2.08-8-4.17-15.93-6.43,15.18Z" transform="translate(-6.06 -20.57)"/><path class="cls-1" d="M641,31,622.07,56.72l-2.19,13.92L609.68,69l2.2-13.93L601.77,24.84l11.62,1.84L618.76,45l10.75-15.8Z" transform="translate(-6.06 -20.57)"/><path class="cls-1" d="M672.05,63.47a10.19,10.19,0,0,1,.64,6.89,10.51,10.51,0,0,1-5.54,7.42q-4.24,2.11-10.84.52l-19.18-4.66,10-41.22L665.86,37q6.3,1.53,9.07,5.11a9.68,9.68,0,0,1,1.54,8.65A9.85,9.85,0,0,1,673,56.44a9.36,9.36,0,0,1-6,2A10.69,10.69,0,0,1,672.05,63.47Zm-9.22,3a4.44,4.44,0,0,0-.62-3.82,6.34,6.34,0,0,0-3.83-2.26l-7.06-1.71L649.07,68l7.11,1.72Q661.73,71,662.83,66.48ZM653,51.69l6.53,1.58q5.19,1.27,6.27-3.17t-4.23-5.72l-6.42-1.55Z" transform="translate(-6.06 -20.57)"/><path class="cls-1" d="M701.38,83.77l-15.07-5.06-5,6.5-10.24-3.43,28.12-35,11.21,3.76,1.34,44.88-10.35-3.48Zm0-8.24-.05-16.47-10,13.1Z" transform="translate(-6.06 -20.57)"/><path class="cls-1" d="M764.78,72.3,740,92.41l-5.62,12.93-9.47-4.11,5.63-12.94-2.19-31.83,10.78,4.69.6,19.1,14.37-12.59Z" transform="translate(-6.06 -20.57)"/><path class="cls-1" d="M778.84,79.74l-19.19,37.83-9.15-4.65,19.19-37.83Z" transform="translate(-6.06 -20.57)"/><path class="cls-1" d="M797.72,139.29l-8.84-5.21-1.55-31.15L774.1,125.36l-8.84-5.21,21.56-36.54,8.83,5.21,1.43,31.36,13.35-22.64,8.84,5.21Z" transform="translate(-6.06 -20.57)"/><path class="cls-1" d="M829.33,143.38l-8.89,11.93-8.23-6.13,25.36-34,13.32,9.94q6.06,4.52,7,9.89T855,145.47a14,14,0,0,1-5.63,4.6,12.35,12.35,0,0,1-7.12.75,18.54,18.54,0,0,1-7.84-3.63Zm17.32-4.15q3.33-4.47-1.62-8.17l-4.18-3.12-6.6,8.85,4.18,3.12Q843.38,143.62,846.65,139.23Z" transform="translate(-6.06 -20.57)"/><path class="cls-1" d="M857.41,185.21l3.61-18.1-1.77-1.54-10.53,12.07L841,170.9l27.88-32,13.21,11.51a18.93,18.93,0,0,1,5.27,6.91,12,12,0,0,1,.8,7,13.6,13.6,0,0,1-3.24,6.37,12.4,12.4,0,0,1-7.09,4.25,13,13,0,0,1-8.5-1.53L866,192.67Zm6.46-24.93,4.79,4.18a6.39,6.39,0,0,0,4.28,1.94,5.23,5.23,0,0,0,3.71-2.06,5.31,5.31,0,0,0,1.49-4,6.17,6.17,0,0,0-2.42-4l-4.79-4.18Z" transform="translate(-6.06 -20.57)"/><path class="cls-1" d="M919.36,189.62a20.4,20.4,0,0,1-.22,10.93A23.59,23.59,0,0,1,903,216.08a20.62,20.62,0,0,1-11-.18,22.47,22.47,0,0,1-15-15.6,20.45,20.45,0,0,1,.23-11,23.49,23.49,0,0,1,16.13-15.55,20.65,20.65,0,0,1,10.95.2,22.58,22.58,0,0,1,15.07,15.64ZM899,183q-4.42.14-8.48,4t-4.33,8.3a11.34,11.34,0,0,0,11.1,11.52q4.45-.14,8.47-4c2.68-2.59,4.12-5.35,4.33-8.31A11.41,11.41,0,0,0,899,183Z" transform="translate(-6.06 -20.57)"/><path class="cls-1" d="M949.85,222.22l-22.43,18.35q-5.16,4.22-10.24,3.69t-9.15-5.5q-4.41-5.38-3.95-11t6.17-10.31l6.42,7.84q-4.59,3.76-1.75,7.25c1.65,2,3.65,2.06,6,.13l22.43-18.35Z" transform="translate(-6.06 -20.57)"/><path class="cls-1" d="M954.4,242.21l-7.23,5.15L955.49,259l-6.3,4.49-8.32-11.68-7.67,5.47,9.37,13.15-6.7,4.77-15.32-21.5,34.54-24.62,15.32,21.49-6.64,4.74Z" transform="translate(-6.06 -20.57)"/><path class="cls-1" d="M988.57,287.31a19.48,19.48,0,0,1-6.34,11.82l-5.59-9.31a10,10,0,0,0,2.06-5.54,10.22,10.22,0,0,0-1.6-5.93,9,9,0,0,0-6.56-4.53q-4.26-.68-9,2.17t-6.11,6.89a9,9,0,0,0,.93,7.9,10.27,10.27,0,0,0,4.48,4.21,10,10,0,0,0,5.81.82l5.58,9.31a19.59,19.59,0,0,1-13.38,0q-6.42-2.34-10.58-9.29A21.25,21.25,0,0,1,945,285.13,18.67,18.67,0,0,1,947.87,275a26,26,0,0,1,19.25-11.54,18.63,18.63,0,0,1,10.28,2.26,21.15,21.15,0,0,1,7.92,7.91Q989.49,280.57,988.57,287.31Z" transform="translate(-6.06 -20.57)"/><path class="cls-1" d="M1012.51,325.77l-7.32,3.62-5.1-10.34-30.72,15.16L964.8,325l30.73-15.16-5-10.22L997.8,296Z" transform="translate(-6.06 -20.57)"/><path class="cls-1" d="M1028.63,343.92l1.81,4.7-47,18.08-1.81-4.7Zm5.4,14-47,18.09-1.81-4.71,47-18.08Z" transform="translate(-6.06 -20.57)"/><path class="cls-1" d="M993.77,428.78a3.57,3.57,0,1,1,2.59-4.34A3.59,3.59,0,0,1,993.77,428.78Zm60.93-13.55-2.62-10.38c-8.52-10.12-22.72-16.36-36.4-12.9l-3.38.85a17.86,17.86,0,0,0-8.44,29.75,17.4,17.4,0,0,0-.15,9.15,17.86,17.86,0,0,0,21.68,12.94l3.38-.85C1042.45,440.33,1052,428.1,1054.7,415.23Zm-31.93,19a7.07,7.07,0,0,1-8.92-6.52,7.61,7.61,0,0,1,1-4,5.49,5.49,0,0,0-1.9-7.5,7.89,7.89,0,0,1-2.77-3,7.31,7.31,0,0,1,.32-6.74,7,7,0,0,1,4.42-3.31l3.38-.86a24.88,24.88,0,0,1,26.52,9.88,24.92,24.92,0,0,1-18.67,21.19Z" transform="translate(-6.06 -20.57)"/><path class="cls-1" d="M1051.09,504.42l-12.4,1.51a22.5,22.5,0,0,1-5-11.73,34.4,34.4,0,0,1,2.08-17.46,22.67,22.67,0,0,0,1.53-12.17,15.7,15.7,0,0,0-6.79-11.51l12.49-1.51a23.59,23.59,0,0,1,4.93,11.73,32.82,32.82,0,0,1-2.06,17c-1.26,3.75-2.28,6.61-1.54,12.69A16.33,16.33,0,0,0,1051.09,504.42Z" transform="translate(-6.06 -20.57)"/><path class="cls-1" d="M1069,569.64l-10.71-.17c-1.3-3.68-3.74-5.42-7.06-5.47l-12.49-.21A23.13,23.13,0,0,1,1016,540.3a17.82,17.82,0,0,1,18-17.56l17.85.29.11-7.14,10.71.17-.29,17.85-28.47-.46a7.14,7.14,0,0,0-7.26,7,12.38,12.38,0,0,0,12.21,12.61l12.5.2A18,18,0,0,1,1069,569.64Zm-3.14-26.75a3.53,3.53,0,1,1,3.51,3.63A3.53,3.53,0,0,1,1065.89,542.89Z" transform="translate(-6.06 -20.57)"/><path class="cls-1" d="M1001.07,603l-3.54,2.8-1.9-2.48,3.61-2.7L996.45,597l2.47-1.82,2.7,3.61,3.62-2.79,1.83,2.38-3.62,2.79,2.8,3.54-2.39,1.91Zm33.91,29.2a11.8,11.8,0,0,1-1.76-.31l1.39-10.62a12.81,12.81,0,0,0,1.75.31,16,16,0,0,0,15.5-7.06,15.7,15.7,0,0,1-1.95-.17,17.12,17.12,0,0,1-11.13-6,2.27,2.27,0,0,0-.38-.39,2,2,0,0,1-.47.28,22,22,0,0,1-16.49,4.19,21.43,21.43,0,0,1-10.28-4l1.73-13.23a14.46,14.46,0,0,0,9.93,6.7c4.55.59,6.8-.91,9.24-2.48,1.89-1.38,4.32-2.95,7.53-2.53,3.54.46,5.65,2.7,7.08,4.18s2.17,2.42,4.62,2.74a4.12,4.12,0,0,0,3-.72,16.2,16.2,0,0,0-13.78-13.29c-.59-.07-1.19-.06-1.78-.14l1.39-10.62c.59.07,1.19.07,1.78.14a26.73,26.73,0,1,1-6.92,53Z" transform="translate(-6.06 -20.57)"/><path class="cls-1" d="M1039.5,718l-10.26-3.08a7.17,7.17,0,0,0-4.78-8.89l-12-3.59a25.37,25.37,0,0,1-3.43-1.3,23.34,23.34,0,0,1-12.13-14.56,22.77,22.77,0,0,1,.06-12.93,27.71,27.71,0,0,1,2.11-5,24.13,24.13,0,0,1,8.7-8.57l21.08,6.33,2-6.84,10.26,3.08-2,6.84,3.42,1,2-6.84,10.26,3.08-5.13,17.1L1009.93,672a12.45,12.45,0,0,0,5.64,20.24l12,3.59a17.36,17.36,0,0,1,5.68,3,17.84,17.84,0,0,1,6.87,12A18.3,18.3,0,0,1,1039.5,718Z" transform="translate(-6.06 -20.57)"/><path class="cls-1" d="M981.83,745.38l-1.67-4.18-4.23,1.56L974.85,740l4.23-1.56-1.64-4.26,2.81-1.08,1.67,4.19,4.23-1.56,1.08,2.8L983,740.12l1.67,4.19ZM988.57,766a18.54,18.54,0,0,1-4.55-3l4.81-10.8a8.81,8.81,0,0,0,4.1,4,4.46,4.46,0,0,0,5.91-2.21c.93-2.09.54-3.29-.74-6.28s-3.31-7.8-1-13.77a21.35,21.35,0,0,1-6.24-25.48l9.78,4.36a10.67,10.67,0,1,0,19.49,8.68l9.79,4.35a21.53,21.53,0,0,1-23,12.45c-.42,1.58,0,2.81,1.11,5.24,1.41,3.32,3.46,8.33.59,14.78A15.1,15.1,0,0,1,988.57,766Z" transform="translate(-6.06 -20.57)"/><path class="cls-1" d="M941.59,834.64l-2.92-1.91A17.86,17.86,0,0,1,933.53,808a17.44,17.44,0,0,1,6.84-6.09A17.86,17.86,0,0,1,968,788l2.92,1.91c11.8,7.74,16.82,22.41,15.13,35.53l-5.87,9C968.85,841.12,953.39,842.37,941.59,834.64Zm5.87-9a24.91,24.91,0,0,0,28.24-.6A24.87,24.87,0,0,0,965,798.88L962.11,797a7,7,0,0,0-5.43-1,7.29,7.29,0,0,0-5.17,4.33,7.81,7.81,0,0,0-.33,4.06,5.48,5.48,0,0,1-4.24,6.47,7.66,7.66,0,0,0-3.64,2,7.45,7.45,0,0,0-1.9,6.48,7.35,7.35,0,0,0,3.14,4.5Z" transform="translate(-6.06 -20.57)"/><path class="cls-1" d="M892.78,843.4l-4.49.42L888,840.7l4.5-.3-.36-4.55,3.06-.18.3,4.5,4.55-.37.24,3-4.55.36.42,4.49-3.06.3Zm32.9,60.34-8.15-7c1.33-3.67.56-6.56-2-8.71L906.06,880a23.15,23.15,0,0,1-2.59-32.6,17.83,17.83,0,0,1,25.1-2l13.58,11.58,4.64-5.43,8.15,6.95L943.35,872l-21.66-18.48a7.14,7.14,0,0,0-10.07.8,12.37,12.37,0,0,0,1.39,17.5l9.51,8.11A18,18,0,0,1,925.68,903.74Z" transform="translate(-6.06 -20.57)"/><path class="cls-1" d="M855.16,925.67l-2.35-2.58A17.86,17.86,0,0,1,854,897.87a17.44,17.44,0,0,1,8.14-4.19,17.67,17.67,0,0,1,5-7.77,17.85,17.85,0,0,1,25.22,1.17l2.34,2.57c9.51,10.43,10.72,25.89,5.81,38.18L892.57,935C879.94,938.73,864.66,936.09,855.16,925.67Zm7.92-7.22a24.91,24.91,0,0,0,27.49,6.45,24.85,24.85,0,0,0-3.81-28l-2.35-2.58a7.09,7.09,0,0,0-5-2.34,7.31,7.31,0,0,0-6.1,2.91,7.88,7.88,0,0,0-1.32,3.85,5.49,5.49,0,0,1-5.71,5.21,7.6,7.6,0,0,0-4,1,7.07,7.07,0,0,0-1.53,10.94Z" transform="translate(-6.06 -20.57)"/><path class="cls-1" d="M822.56,988.63l-6.16-8.76c2.21-3.22,2.18-6.21.27-8.92l-7.19-10.22a23.14,23.14,0,0,1,5.6-32.21,17.84,17.84,0,0,1,24.82,4.25l10.27,14.6,5.84-4.11,6.16,8.76-14.59,10.27L831.19,939a7.13,7.13,0,0,0-10-1.73,12.36,12.36,0,0,0-3,17.29l7.19,10.22A18,18,0,0,1,822.56,988.63Zm19.77-18.28a3.53,3.53,0,1,1-.86,5A3.54,3.54,0,0,1,842.33,970.35Z" transform="translate(-6.06 -20.57)"/><path class="cls-1" d="M751.3,997a11.41,11.41,0,0,1-.76-1.62l9.46-5a12,12,0,0,0,.76,1.62,16,16,0,0,0,14.73,8.55,12.44,12.44,0,0,1-1-1.69A17.08,17.08,0,0,1,773,986.34a2.17,2.17,0,0,0,.1-.53,1.91,1.91,0,0,1-.5-.22c-3.38-1.29-8.94-3.44-13-11a21.49,21.49,0,0,1-2.68-10.7l11.79-6.25a14.48,14.48,0,0,0,.28,12c2.15,4.06,4.68,5,7.37,6.1,2.22.75,4.91,1.83,6.42,4.68,1.67,3.16,1.06,6.18.69,8.2s-.73,3.17.43,5.35a4.21,4.21,0,0,0,2.32,2A16.21,16.21,0,0,0,789.08,977c-.28-.52-.63-1-.91-1.54l9.46-5c.28.53.64,1,.91,1.54a26.73,26.73,0,1,1-47.24,25Zm4.2-44.55-4.32-1.27.91-3,4.3,1.38,1.34-4.37,2.91,1-1.38,4.29,4.36,1.35-.88,2.87-4.37-1.34-1.26,4.32-3-.84Z" transform="translate(-6.06 -20.57)"/><path class="cls-1" d="M721.82,1034.12l-18.07-47,4.71-1.81,18.06,47Zm14-5.4-4.7,1.81-18.06-47,4.7-1.81Z" transform="translate(-6.06 -20.57)"/><path class="cls-1" d="M660.83,1044.53l-2.15-7.87,11.11-3-9-33,10-2.72,9,33.05,11-3,2.15,7.87Z" transform="translate(-6.06 -20.57)"/><path class="cls-1" d="M618.39,1052.86l-7.85-41.69,10.15-1.91,3.27,17.39,15.8-3-3.27-17.39,10.08-1.9,7.85,41.69L644.33,1048l-3-16.15-15.8,3,3,16.16Z" transform="translate(-6.06 -20.57)"/><path class="cls-1" d="M598.11,1047l-1-8.83-14.25,1.55-.84-7.69,14.26-1.55-1-9.37-16,1.75-.89-8.17,26.25-2.86L609.2,1054,583,1056.85l-.88-8.11Z" transform="translate(-6.06 -20.57)"/><path class="cls-1" d="M530.63,1034.33a10.16,10.16,0,0,1-2.35-6.5,10.53,10.53,0,0,1,3.49-8.58q3.57-3.12,10.36-3.23l19.73-.31.69,42.41-19.26.31q-6.48.1-10.06-2.66a9.69,9.69,0,0,1-3.67-8,9.86,9.86,0,0,1,1.94-6.42,9.42,9.42,0,0,1,5.28-3.42A10.55,10.55,0,0,1,530.63,1034.33Zm8.17-5.23a4.45,4.45,0,0,0,1.56,3.55,6.35,6.35,0,0,0,4.28,1.22l7.25-.12-.15-9.54-7.32.12Q538.72,1024.42,538.8,1029.1ZM552,1041l-6.72.11q-5.34.07-5.26,4.64t5.53,4.47l6.6-.1Z" transform="translate(-6.06 -20.57)"/><path class="cls-1" d="M497.19,1021.94l15.86,1.13,3.19-7.54,10.77.77-18.5,40.91-11.79-.84-12.5-43.12,10.89.78Zm2.08,8,4.16,15.94,6.43-15.18Z" transform="translate(-6.06 -20.57)"/><path class="cls-1" d="M438.64,1048.9l18.95-25.67,2.21-13.93,10.19,1.62-2.2,13.92,10.08,30.27-11.61-1.84-5.36-18.34-10.76,15.79Z" transform="translate(-6.06 -20.57)"/><path class="cls-1" d="M407.65,1016.45a10.25,10.25,0,0,1-.64-6.89,10.55,10.55,0,0,1,5.55-7.42q4.24-2.11,10.84-.51l19.17,4.67-10,41.22L413.83,1043q-6.3-1.53-9.07-5.11a9.69,9.69,0,0,1-1.54-8.65,9.94,9.94,0,0,1,3.49-5.73,9.45,9.45,0,0,1,6-2A10.64,10.64,0,0,1,407.65,1016.45Zm19,11.79-6.53-1.59c-3.46-.84-5.55.21-6.26,3.17s.69,4.86,4.22,5.72l6.41,1.56Zm-9.79-14.8a4.47,4.47,0,0,0,.61,3.83,6.36,6.36,0,0,0,3.83,2.26l7.06,1.72,2.25-9.27-7.11-1.74Q418,1008.89,416.88,1013.44Z" transform="translate(-6.06 -20.57)"/><path class="cls-1" d="M378.35,996.14l15.08,5.06,5-6.49,10.24,3.44-28.14,35-11.21-3.77L368,984.49,378.32,988Zm0,8.24,0,16.46,10-13.08Z" transform="translate(-6.06 -20.57)"/><path class="cls-1" d="M314.93,1007.56l24.78-20.09,5.63-12.93,9.46,4.12-5.63,12.93,2.17,31.83-10.78-4.69-.58-19.1-14.38,12.58Z" transform="translate(-6.06 -20.57)"/><path class="cls-1" d="M300.87,1000.12l19.22-37.82,9.15,4.65L310,1004.76Z" transform="translate(-6.06 -20.57)"/><path class="cls-1" d="M282,940.55l8.83,5.22,1.53,31.15,13.24-22.42,8.84,5.21L292.9,996.24,284.07,991l-1.41-31.36-13.37,22.63-8.83-5.22Z" transform="translate(-6.06 -20.57)"/><path class="cls-1" d="M250.41,936.43l8.9-11.93,8.22,6.14-25.38,34-13.32-9.94q-6-4.53-7-9.9t2.87-10.47a14,14,0,0,1,5.64-4.59,12.32,12.32,0,0,1,7.11-.75,18.39,18.39,0,0,1,7.84,3.64Zm-17.32,4.14q-3.34,4.47,1.61,8.17l4.18,3.12,6.61-8.85-4.18-3.12Q236.36,936.19,233.09,940.57Z" transform="translate(-6.06 -20.57)"/><path class="cls-1" d="M222.38,894.59l-3.62,18.11,1.76,1.54,10.54-12.07,7.72,6.75-27.9,32-13.19-11.52a19,19,0,0,1-5.28-6.92,12,12,0,0,1-.79-7,13.63,13.63,0,0,1,3.25-6.37A12.27,12.27,0,0,1,202,904.8a13,13,0,0,1,8.5,1.53l3.38-19.2Zm-6.48,24.93-4.79-4.18a6.39,6.39,0,0,0-4.28-1.94,5.23,5.23,0,0,0-3.71,2.06,5.28,5.28,0,0,0-1.49,3.95,6.09,6.09,0,0,0,2.42,4l4.79,4.18Z" transform="translate(-6.06 -20.57)"/><path class="cls-1" d="M160.43,890.15a20.3,20.3,0,0,1,.23-10.93,23.55,23.55,0,0,1,16.16-15.52,20.52,20.52,0,0,1,11,.19,22.42,22.42,0,0,1,15,15.61,20.51,20.51,0,0,1-.23,11A23.48,23.48,0,0,1,186.43,906a20.51,20.51,0,0,1-10.94-.21,21.42,21.42,0,0,1-9.52-5.86A21.69,21.69,0,0,1,160.43,890.15Zm20.32,6.66q4.42-.12,8.48-4t4.34-8.29A11.34,11.34,0,0,0,182.48,873q-4.46.12-8.48,4t-4.33,8.3a11.39,11.39,0,0,0,11.08,11.56Z" transform="translate(-6.06 -20.57)"/><path class="cls-1" d="M130,857.53l22.44-18.34q5.16-4.22,10.24-3.68t9.15,5.51q4.4,5.38,3.94,11t-6.18,10.32l-6.41-7.85q4.59-3.76,1.75-7.25c-1.64-2-3.64-2.06-6-.13l-22.44,18.33Z" transform="translate(-6.06 -20.57)"/><path class="cls-1" d="M125.43,837.56l7.24-5.15-8.32-11.68,6.3-4.49L139,827.92l7.68-5.46-9.37-13.15,6.7-4.77L159.29,826l-34.55,24.61-15.32-21.5,6.65-4.74Z" transform="translate(-6.06 -20.57)"/><path class="cls-1" d="M91.28,792.41a19.42,19.42,0,0,1,6.35-11.81l5.58,9.31a10,10,0,0,0-2.07,5.54,10.34,10.34,0,0,0,1.6,5.94,9,9,0,0,0,6.56,4.53q4.24.68,9-2.17t6.13-6.88a9.06,9.06,0,0,0-.93-7.91,10.27,10.27,0,0,0-4.48-4.21,10.08,10.08,0,0,0-5.81-.82l-5.58-9.31a19.62,19.62,0,0,1,13.39,0q6.41,2.35,10.57,9.3a21.14,21.14,0,0,1,3.24,10.72A18.59,18.59,0,0,1,132,804.76a26,26,0,0,1-19.25,11.53A18.58,18.58,0,0,1,102.44,814a21.13,21.13,0,0,1-7.93-7.92Q90.35,799.16,91.28,792.41Z" transform="translate(-6.06 -20.57)"/><path class="cls-1" d="M67.36,753.93l7.32-3.6,5.09,10.33,30.73-15.14,4.56,9.26L84.33,769.92l5,10.23-7.32,3.6Z" transform="translate(-6.06 -20.57)"/><path class="cls-1" d="M47.12,725.16,94,706.78l1.84,4.69L49,729.85Zm5.5,14-1.84-4.69,46.84-18.38,1.84,4.69Z" transform="translate(-6.06 -20.57)"/></svg>