<svg xmlns="http://www.w3.org/2000/svg" viewBox="0 0 726.45 629.47"><defs><style>.cls-1{fill:#af0000;}</style></defs><title>cross</title><g id="Layer_2" data-name="Layer 2"><g id="Layer_1-2" data-name="Layer 1"><path class="cls-1" d="M543.2,182.47l-4.81,3.72,3.08,2.39-4.19,2.66.19,1.19,11.28-.87-3.38,5.15,7.74-3c-.57-1.31-1.36-3.12-2.22-5.07,2.92-3.42,6.37-3.7,10.68-.52l-7.73,1c0,.38,0,.75,0,1.12l6,.53.64,1.06-13.28,9.79c.14.38.29.75.44,1.13l15.67-5.84,1.14,2c-13.22,9.7-26.12,19.89-39.87,28.77-3.56,2.31-7.31,2.85-7.61,8-.07,1.12-1.53,2.42-2.65,3.19-8.8,6-17.77,11.74-26.47,17.87-2.38,1.68-3.82,4.65-6.07,6.59-4.86,4.16-9.88,8.16-15,12-10.35,7.78-20.81,15.41-31.6,23.38,4.74,6.23,9.16,12.37,13.93,18.23,8.42,10.34,17.09,20.48,25.59,30.75,7.55,9.12,14.79,18.52,22.59,27.41,16.72,19,33.82,37.72,50.56,56.72A233.72,233.72,0,0,0,582,464.16c7.27,5.5,13.76,12.13,20.14,18.69,7.44,7.64,14.54,15.62,21.43,23.76,2.38,2.82,3.72,6.54,5.49,9.87,1.28,2.41,3,4.75,3.6,7.33,1,4.5,1.15,9.17,1.65,13.76l-1.34.08-11.75-11.11-.8.7,13.07,21.32c-1.21.12-3.45,1-4.75.3-2-1.16-4.75-3.36-4.85-5.25-.4-7.19,0-7.21-8.19-10-3.45,6,1.85,10.35,3.69,16.17l-21.28-20.38c-.49,6.85,5.66,8.31,8.4,12.53-4.38,5.2-3.19,11,1.25,17.32l-14.21-8.69L592.44,552c3.9,6.92,7.81,13.84,12.28,21.78l-7.51-6.61-1,.94c.59,1.2,1.19,2.39,1.78,3.59-3-3-6.39-4.15-10.41-1.31-.49,1.43-1.38,4-2.29,6.64-5.55-4.26-7.42-13-16.27-14.23,3.46,3.82,7.05,7.54,10.27,11.56.8,1,.41,3,.57,4.5a40.39,40.39,0,0,1-3.74-2.32c-3.63-2.79-7.2-5.66-10.79-8.5l-1.1,1.12q2.87,4.93,5.72,9.89l-1.16,1-10.1-4.13-.77.55,18.48,21.84L575,599.61c-7.36-5.83-11.41-15.32-20.75-19.12l2.59,3.69-.72,1.34-8.08-4.79-.63.61,15.72,18.19-.45.57c-.88-.71-1.78-1.4-2.63-2.15a13.38,13.38,0,0,1-2.47-2.46c-4-6.23-11.32-7.33-16.89-11.12-2-1.37-4-2.84-5.93-4.26-.47,1.36-.94,2.68-1.4,4,.4-.4.8-.79,1.19-1.19l5.89,6.46-3.23,2.11,8.85,7.43-1,1.26L525,585.5l-.9.89,5.5,5.91-7.2-2.84c.23,1.48.4,2.6.62,4l-10.74-7.22-.78,1,8.51,7.53-.69.93-14.52-9.82,5.12-2.48a36,36,0,0,0-5.38-2.82c-.51-.17-1.48,1-2.73,2l-6.66-5.29,3.75-2.44c-8.63-8.63-20.38-13.76-27.39-25l6.84-.81L467.16,542l6-.74c4.49,2,3.89,9.47,11.32,9.12l-2.46-4.77,3.84,1.33.92-1.08c-2-1.8-4.26-3.36-5.86-5.45-2.56-3.35-4.68-7.06-7-10.61l-.13.13.76-.69c4.74,4.1,9.19,8.29,14,12,2,1.53,3.38,5.83,7.45,3,.18-.12,1.73,1.74,2.66,2.67.95,1.48,1.65,3.19,2.85,4.42,1.91,2,3.75,5.11,6.77,2.56-1.13-1.55-1.8-3.25-3-4a44.88,44.88,0,0,0-6.7-2.87c.34-1.42.67-2.85.78-3.32-2.95-2.75-5.47-5-7.88-7.41a2.1,2.1,0,0,1-.22-1.86c.49-1.25,2.07-3,1.73-3.48a61.28,61.28,0,0,0-5.64-6.35l-.92.79,4.75,6-.64,1c-3.46-1.9-8.16-3-10-5.91-1.75-2.75-.52-7.41-.64-12.51l5.71,2.53c2.11-3.29,1.18-4.43-5.54-5.64.21-2.25.43-4.51.64-6.77l.88-.12,1.25,2.64,5.82-3.75c-4.35-4.07-8.35-8.15-13.63-10.48l-1.2,1.18,2.92,5.17c-2.38,2.23-2.46,2.28-5.69-2.53-1.7-2.52-3.06-5.26-4.58-7.9l-2.14,1.7,4.82-3.43c2,2.09,2.67,6.78,8.61,3.17-3.6-3-7.09-5.43-10-8.43-3.16-3.24-6.87-6.62-8.3-10.66a18.81,18.81,0,0,0-4.89-7.91c-2.48-2.33-5.41-4.27-7.52-6.88-3.26-4-5.66-8.78-9-12.72-4.93-5.81-10.4-11.14-15.56-16.74-2.07-2.25-3.94-4.67-5.89-7-3.5-4.26-7-8.49-10.48-12.79-4.87-6.1-8.79-13.56-18.36-12.87a27.19,27.19,0,0,0-4.83,1.24l.73,4.46-6.54-1.22q1.19,4.21,2.38,8.43l1.63-.22c.22-1.59.45-3.19.72-5.11l5,2.2-1.76-4.32c2.36-.27,4.56-.92,6.67-.68,8.18.93,10.77,7.45,13.41,13.87.41,1,1.24,2.43,2,2.54,4.25.56,4.24,3.59,4.83,7.56H401.51c-.07,2.39,5,8.21,8.33,9.18-1.46.86-3.21,2-4.56,1.63S403,431,401.4,429.32c.31,6.3,3.06,9.52,5.69,7.4,3-2.44,4.1-.37,6.09.11,1.76-.39,4.25-.68,4.83.24,1.44,2.28,3.19,5.38,2.68,7.66-.87,3.86-1,4.46,2.67,5.86s8.5,1.55,9.73,6.71a11.45,11.45,0,0,0,2.47,0c-2.07-2.72-2.17-5.69-5.08-7.43-1.59-.95-2.8-3.32-3.21-5.26-.61-2.88-2-3.54-4.64-3.61-.33,0-.56-3.46-.85-5.31a.5.5,0,0,0-.37-.31c-4,.38-3.55-1.95-3.41-4.76.05-1-2.13-2.1-3.32-3.12a6.62,6.62,0,0,0-1.15-.62c.87-1.1,1.56-2,2.26-2.87,1.86,2.08,3.81,3.94,5.37,6.08,3.66,5,6.69,10.53,10.77,15.15,6.62,7.51,14,14.31,20.77,21.73,2.07,2.28,2.29,6.84,4.61,8.17,3,1.73,2.31,8.41,8,6.09.27.74.53,1.49.79,2.24l-2.87,2.77c-3-1.05-6-4.1-7.61-8.28-.79-2.11-1.14-2.91-3.69-4-3.65-1.54-8.67-2.76-10.08-8.17-.49-1.89-3.23-3.2-5.05-4.86L434.56,464c4.05.35,4.66,3.5,1.91,8.21-4.57,1.57-.86-7.81-7-4.83,1.44,1.9,2.74,3.59,3.21,4.21-.9,3.72-1.59,6.58-2.28,9.47l-2.79-2.25-4.26,9-9.54-18c1-.93,2.79-2.57,4.63-4.27l-7-2.51c.19,1.16.47,3,.76,4.8l-1.61.44a55.25,55.25,0,0,0-2.24-7.72c-.55-1.25-2.19-2-3.82-3.44a10.44,10.44,0,0,0,2.39-.68c.93-.61,1.76-1.37,2.63-2.07-1.12-.76-2.58-2.39-3.28-2.11a103.87,103.87,0,0,0-9.92,5.15l-2.49-8.08c2.43,1.47,4.63,4.24,4.88-.27l-4.4-7.6L391,447.16c-4.09-.85-7.3-5-7.82-11-.3-3.37-.39-6.75-.57-10.13l0,.11,1.29-3-10.68-5.42c-.41.67-1.18,1.92-2.06,3.37l-6.07-1.37c2.4,4.38,4.47,7.91,6.3,11.57s3.39,7.23,4.93,10.91c.17.39-.91,1.18-.91,1.79,0,1.95.25,3.91.44,6.45-1.58-1.83-2.82-3.38-4.17-4.82q-7.47-8-15-16c-1.95-2.06-3.19-4.15-1.25-6.89a2.31,2.31,0,0,0,.57-1.34c-.26-3.62-.61-7.23-.93-10.85l1-.78,9.59,2.19.21-1.67h-2.15c1.21-6.39-1.71-10.49-6.62-10.9-1.52-2.14-2.27-4.15-3.69-4.9a5.6,5.6,0,0,0-4.91.19c-1.3.91-1.73,3.05-2.49,4.55l-4.44-9.3-1.24.5q1.17,3.6,2.36,7.21l-1.33.6-3.52-5.38-.5.19,1.07,4.23c-2.73-1-5.07-1.23-6.38-2.5-2.8-2.73-5-6.1-7.61-9-1.49-1.67-2.82-3-5.56-.74-8.06,6.64-16.62,12.66-24.81,19.16-5.16,4.09-9.8,8.84-15,12.87-7.08,5.47-14.47,10.53-21.72,15.77-10.79,7.8-21.77,15.35-32.31,23.47-14.85,11.42-29.6,23-44,35-12.87,10.78-24.75,22.74-37.8,33.28-9.86,8-17,18.4-26.19,26.6-5,4.46-8.94,9.67-14.61,13.94l2.47-11c-5.52,1.8-9.38,7.63-9.79,15.27-.06,1.17,0,2.34,0,3.5-.23,3.65-1.46,4.56-5.84,4.28-.12-1.28-.25-2.58-.51-5.27-2.17,3-5.35,6.61-4.95,7.06,3.14,3.6.61,6.3-.63,9.3a3.42,3.42,0,0,0,0,1.55l12.06-1.68-9.67,9.52.9.92,3.21-2.63,1,1.29-6.22,5-1.1-1.11v3.5l2.37-1.93v3.06l2.58-2.28.56.43L75,629.47c-2.69-.61-3.87-.83-3.21-4.68,1.12-6.56,5.27-10.83,9.86-16.72L75.9,611v-8.38L63.25,610c.43-2.18.65-3.31.79-4.05-2.63-1-5-1.89-7.86-3l9.1-5.68L64.8,596l-18.36,5.2L52,593.3l-13.69,1.61L37.38,593l12.15-8.83-.75-1.09-.39,2.77,1,1L56,579.25,44.68,574l.59-.69c-2.65.23-6.58,1.6-7.66.4-1.62-1.8-1.24-5.39-1.87-9.11H22.47c4.14-4,7.41-7.18,10.57-10.44.12-.13-.9-1.36-1.41-2.1.66-.55,1.69-1.38,2.72-2.22-.19-.29-.37-.58-.55-.88l-7.3,1,.43,4.31-5.08-5.9c-4.56,2.16-5.07,1.57-6.53-4-.86-3.3-3.16-6.2-4.27-9.47-.72-2.13-.48-4.6-.69-7.12l-3.22,3-1.24-.73c1-2,2.09-4,3.43-6.6-2.12-.25-4.07-.46-6-.73-3-.41-3.93-1.7-2.92-4.94,2.48-7.91,4.42-16,6.78-24,.72-2.41,2.19-4.59,3.2-6.92A36.72,36.72,0,0,0,11.56,483l-1.22-.32c2.65-2.26,5.16-4.71,8-6.74,4.7-3.4,3.91-7.2,2.05-11.85-.75-1.9.74-4.69,2.1-6.91.36,2.85.72,5.71,1.07,8.56l1.89.42c5.56-9.47,10.38-19.49,16.87-28.27,6.84-9.26,15.2-17.41,23-25.92,2.93-3.18,8.47-4.52,7.08-10.62-.06-.25.93-.72,1.43-1.11,7.68-6,15.33-12,23.06-18,10.41-8,21-15.78,31.31-23.84,4-3.1,7.55-6.71,11.35-10.05,6.3-5.53,12.62-11,18.94-16.54l-.87-1.31L152,332.83l-.88-1c4.41-5.41,10-9.55,16.06-13.28,1.1,2.71,1.1,2.71-4.46,8.78,5.94-4.69,15.65-5.33,18.13-13.17,2.4-7.55,8.61-9.93,13.73-15.57-.63,2.94-1,4.76-1.42,6.59l1.29,1.06c1.2-5.42,7.61-2,9.9-7.53,1-2.44,7.6-2.58,11.46-3.71l-1.6,2.83.85.91,10.56-8.8c-1.32,2.74-2.13,4.41-2.93,6.09l1.37.84c1.38-2.26,2.51-4.73,4.19-6.75A103.07,103.07,0,0,1,238.39,279c6.24-5.61,13.75-10,16.68-19.13-4.22,1-6.66-.9-8.71-4.41-1.93-3.29-8.83-4.91-12.25-3.46-6.63-7.82-4.5-20.62-15.2-25.9a13.59,13.59,0,0,1,1-1.75c.43-.49,1-.89,1.85-1.7l.76,4.14c.48-.55,1.2-1,1.14-1.36-.69-3.56-1-7.36-2.56-10.49-.59-1.17-5-1.81-6.52-.85-6.36,4.13-7.15-.56-8.55-4.71a13.65,13.65,0,0,0-.73-1.59l2.77-3a31.11,31.11,0,0,1-3-1.74,15.74,15.74,0,0,1-2.7-2.45c-.13-.15.73-1.52.89-1.47a15.29,15.29,0,0,1,2.79,1.4c2.13-6.34-5-8.73-6.2-13.58-.18-.74-3.13-.79-4.8-1.16l-.54,1.32c-1.53-3-3-6.09-4.66-9.29l-1.28,2.22c-.5-1.2-.92-2.24-1.42-3.44l7.08-1.45-4.4-7.05c-1,2.8-1.72,4.75-2.57,7.08-.6-.2-1.39-.2-1.64-.57-2.8-4.2-5.57-8.42-8.18-12.74-.21-.34.83-1.43.87-1.5-2.42-2.71-4.83-5.36-7.18-8.06-3.43-3.93-7.4-7.55-10-12-3.42-5.65-9.94-8.91-11.26-16.36-.56-3.11-4.7-5.5-7-8.39-4-5-7.79-10.11-11.68-15.18l1.27-1c1.63,1.87,3.2,3.81,4.91,5.6,4.94,5.18,10,10.22,14.88,15.48,2.82,3.05,5.28,6.44,8,9.63.69.83,1.44,2,2.35,2.19,3.1.76,4.6,2.33,5.12,5.68.47,3,1.29,3,9.26,1.82a38.78,38.78,0,0,1-3.67-3.41c-4.4-5.45-8.79-10.91-13-16.49-2.17-2.88-3.82-6.14-6-9-.86-1.15-2.5-1.7-3.77-2.56-.48-.33-1.26-.75-1.27-1.15-.24-7.08-7.63-8-10.71-12.67a4.7,4.7,0,0,1-1.09-2.81c.1-.59,1.51-1,2.69-1.63L132.7,77.61c.85.25,1.62.49,2.4.71,1.74.49,3.59,1.6,5.21,1.33,3.09-.51,5.62-1.57,7.1,2.72.57,1.64,3.37,2.5,5.51,4-5.09-14.84-5.07-15.13.58-17.64l1.61,3c2.72-2.35-3.68-7.39,3.07-7.58l-3.56-5.23c10.06,1.31,14-6.12,19.73-11,6.24-5.31,13.83-5.24,20.75,0,1.08.81,2.28,1.48,4.62,3l-6.12-8.22L195,41.46c1.14.85,2.28,1.7,3.32,2.46L214.27,30.3c4,1.52,4,1.52,4.2-2.35,3.25.48,8-1.41,7.59,5.22l-3-1.6c-2,3.54,2.34,9.4,9.14,12.32L228,37.42l.64-.51,3.48,2.45-.13-.14c4.68,4.41,9.24,9,14.07,13.19,4,3.46,8.47,6.28,12.24,9.9,1.85,1.78,2.11,5.18,3.9,7.07,5.34,5.64,11.28,10.71,16.6,16.37,3,3.16,5.09,7.13,7.78,10.57,4.18,5.35,8,11.16,12.91,15.73,16.14,15,25.62,34.75,38.55,52,3.22,4.3,6.08,8.88,9.13,13.37l53-40,1.12,1.08-31.41,34.05,5.62,4.55,5.69-4c1.63.54,3,1.46,3.62,1.11a68.3,68.3,0,0,0,10-6.17c1.79-1.42,5.36-2.4,3.49-6.24-.22-.46,1-1.55,1.43-2.42,1.2-2.49,2.14-5.13,3.54-7.51.8-1.36,2.29-2.32,3.48-3.45l1.28,1.6-4.26,2.82c.37.41.73.82,1.09,1.24,2.79-2.29,6.06-4.2,8.22-7s6.76-3.61,6.43-8.69c-.11-1.64,3-3.48,5.43-4.6-.6,1.89-1.14,3.8-1.84,5.65s-1.51,3.56-1.37,5.7L438.56,131l-.09-.16c1.69-1.6,4-2.89,5-4.85,5.61-11.49,15.38-18.34,25.68-24.67l1.15,1L464.6,109l.48.69a93.46,93.46,0,0,1,7.53-5.87c2-1.25,4.4-1.72,6.47-2.82.56-.3.56-1.65,1-3l12.17-4.42-3.3-1.86,6.7-7.78-1.1-.84,4.29-.86-1.76-3,17-20.78,1.74,1.68L511.2,71.37l2.27,1.23c3.49-4.28,7-8.55,10.4-12.89.11-.14-.84-1.12-1.29-1.7l-.09,0c3.66-2.46,7.3-4.93,11-7.35,1.27-.84,2.64-1.53,4.95-2.85l-4.63,6.75,1.1,1.23c1.79-1,4.78-1.71,5.1-3,.55-2.38.32-5.79-1.08-7.61-3.46-4.48-3.59-5.32,1.69-7.82,1.12-.53,2.25-1,4.42-2h-6.09c11.4-5.36,16.45-17.43,29.13-21.82L554.33,30.06l4.42.77c.42,2.24.83,4.4,1.38,7.28,1.13-.94,1.77-1.22,2-1.68,1.15-2.82,1.46-6.51,3.48-8.33a19.7,19.7,0,0,1,9.82-4.36c3.73-.59,5.88-1.45,5.9-5.6,0-.89,1.44-2,2.46-2.62,3-1.76,6.11-3.25,9.08-5,.69-.4.95-1.52,1.82-3L588,9.78l-.37-.7c2.74-2.57,5.17-5.67,8.34-7.5,2-1.14,5.11-.6,7.67-.34,2,.2,4,1.12,6,1.74l-3.29,3.45.36,1.36a21.69,21.69,0,0,0,3.83-1.23c4-2.11,7.82-4.36,11.71-6.56l1.3,1.88-6,5.58,8.79-2.3c-1.22,2.1-1.68,2.9-2.79,4.83l5.08-2.56a5.28,5.28,0,0,1-.38,1.38c-4.08,5.85-10.75,8.12-16.32,11.93-4.79,3.28-9.08,7.28-13.6,11-5.37,2.12-11.3,3.08-15.33,7.87-.9,1.07-3.1,2.64-3.34,2.42-3.87-3.39-5.11.88-7.52,2.13-1.53.79-3.89.35-5.77,0-.77-.16-1.26-1.67-1.84-2.51-6.72,3.15-7.34,4.26-5.58,10.47l2-5,2,.88c-1.58,3.49-3.17,7-4.63,10.21a33.32,33.32,0,0,0-5-.5c-1.25,0-3.44.48-3.52,1-.22,1.38.09,3.77.93,4.17,1.3.6,3.27.07,4.84-.38.85-.24,1.37-1.81,2.17-1.94,3.44-.54,4.61-8.32,10.1-2.79-4.83.84-8.08,2.72-7,8.44.15.8-2.95,2.28-4.65,3.25a32.31,32.31,0,0,1-2.21-3c-.77,1.1-2.52,3.47-2.46,3.52,3.9,3.06-.6,3.8-1.58,5.09-1.25,1.65-3.23,2.74-4.85,4.13-3.1,2.66-5.82,6.79-9.35,7.66-3.93,1-3.84,2.89-4.42,5.39,5.84,1.9,7.58-5.94,9.77-5.34,5.74,1.55,6.83-3.87,10.46-4.92V81.8c-.67,2-1.46,3.87-2,5.86a40.76,40.76,0,0,0-.71,4.63l29.61-19.24c-7.15-2-7.56-3-3.77-9,1.06,5.56,3.43,1.67,5.37.88.57-.24,1.06-1,1.56-1,1,0,2.16-.26,2.06-.88-1.2-7.31-1.19-7.29,4.57-11.27,1.38-1,2.65-2.08,4-3.13l-1-1.41c-2.08,1.48-4,3.32-6.29,4.32-1.48.64-3.49.06-5.26,0,.36-1.07.65-3,1.1-3.08,6.85-.59,10.57-6.74,16.4-9.07a27.32,27.32,0,0,0,3.91-2.34l-3-5.53h8.2c-.28-.86-.66-2.06-1.07-3.33.2-.18.4-.5.66-.57a57.32,57.32,0,0,1,7.84-2c2.54-.32,5.33.61,7.71-.07,4.71-1.35,9.22-3.44,14.1-5.34,0,.07.13.84.27,1.71l6.53-.58-4.9,5.48.39,1.4,6.84-1.74c-5.85,8.75,4.73,7.35,6.77,12.54,2.67-5.45,7.12-5.46,11.66-5.71,1.32-.08,2.88-1.44,3.79-2.63,3.56-4.6,6.9-9.36,10.65-14.52,1.14,12.24-10.42,18.67-10.85,30,2.06,1.07,2.35,7.15,7.62,3.54l-.15-.14c-1.72,3.84-3.54,7.64-5.12,11.53-.9,2.2-1.41,4.56-2.2,7.22,6.78-.44,7.78-6,12.12-8.76l-3.94,8.17c3.16,2.41,4.67-.08,5.9-3.07.92-2.26.88-5.37,5.44-5l-6,10.76.36.57c1.55-1.23,3.2-2.34,4.61-3.71s2.62-3,4.67-4.05c-1,2.07-2.07,4.14-3.57,7.13L691.65,68c-.85,3.74-1.47,6.45-2.33,10.24l14.21-12c-1.58,4.56-2.81,8.09-3.95,11.37l8.74-5.18c3.26,10.4-5.15,13.78-9.08,20.53,11.17-2.85,15.46-12.42,22.49-19.07.52,3.49-4.36,7.44,1.15,10.37l3.57-5.42a37.83,37.83,0,0,1-16.4,23.73c-11.34,7.44-23,14.46-34.32,21.87-5.21,3.4-10.2,7.17-15.06,11-2.7,2.15-5.2,2-8.14.89a17.22,17.22,0,0,0-4.4-.49q2.11-5,4.7-11.24c-1.54.37-3.5,1-5.51,1.29a29.67,29.67,0,0,1-6.35.58,60.84,60.84,0,0,1-7.43-1.33c2.76-2.48,4.46-5.28,8-4.37,4.38,1.14,7.92-3.78,12.39-1.5.12.06.65-.84,1.08-1.16,1.16-.84,3.15-2.53,3.45-2.28,5.67,4.83,4.46-2.33,6.81-3.2l-10-1.51c-.06-.65-.11-1.3-.17-1.95l-8.5,5.55c.72-3,2.66-6.19-3.86-3.84-5.15,1.86-5.41.79-6,2.64s-1.55,3.86-2.62,6.47l-3.62.22,1.93-3.53c-3.26,0-6.93-1.48-7.69,3.66-.1.66-1.11,1.68-1.71,1.68-3.31,0-3.83,3.16-5.7,4.62-2.51,1.95-6.22,2.38-9.87,3.61,1.09-4.66.91-4.74-7.87-4.11l12-8.93,1.7-2.09-6.51-4.44c-6,6-16.42,6.72-13.4,18.42L592,129l-8.6-6.36L580.83,124c.63,2,2.08,5.11,1.61,5.44a88.88,88.88,0,0,1-10,5.55c.13.9.41,2.95.7,5l-2.86-.49-11.86,9.22c5.6,1.29,3.07,4.72,1.68,7.92l.13-.14-6.53-3.89-8.12,8.17-1.91,8.38c-1.51-.9-2.26-1.43-3.08-1.81-1.09-.5-2.87-1.57-3.25-1.21-4,3.74-9.89,6.3-9.19,14.12-2.67-3.86-6-4.77-9.17-2.4-1.51,1.13-2.8,4.08-2.41,5.81s3,2.78,5.31,4.63c-.16-2-.63-3.42-.22-3.77a6.24,6.24,0,0,1,3-.85c1-.15,2.18.22,2.94-.22,6.22-3.59,12.35-7.32,18.5-11l1,2.14a49.79,49.79,0,0,0-3.91,5c-.47.77-.13,2-.16,3.07Zm-212,199.12-1.06-.13c0,.37,0,.74,0,1.11l1.19,1.11c-.07-.74-.15-1.48-.23-2.22Zm205.9,149.93c-5.48-2.18-5.48-2.18-6.54.82l10.16,2.2.42-1.2-2.06-1.75c-1.07-7-6.75-10.38-11.52-14.45l-9-12.06-1.84,1.1c.6,1.44.93,3.09,1.86,4.26a25.11,25.11,0,0,0,4.68,4.41,29.73,29.73,0,0,0,4.35,2.24c.24,1,.14,2.6.78,3A21.44,21.44,0,0,1,537.15,531.52ZM474,174.33c-2.25,3.06-4.81,5.22-8.93,6-1.88.34-3.25,3.56-4.85,5.47,6.22-1.37,10.56-5.38,15.69-8-.71-1.24-1.39-2.43-2.05-3.61a34.47,34.47,0,0,0,5.3-.71c.77-.22,1.3-1.34,1.93-2.05a10.4,10.4,0,0,0-2.8-1.7,33.06,33.06,0,0,0-4.9-.45c0-4.6,4.77-5.55,6.72-8.65,0-2,0-4.07,0-6.11-.42-1.9-.84-3.8-1.31-5.91l-3.2.21c-.21-1.31-.43-2.6-.58-3.51-1.94.69-3.69,1-5,1.9-.73.51-1.1,3-1,3,4.16,1.63.61,4.25.79,6.29.27,3.06.14,6.15.11,9.23,0,1.2-.23,2.4-.45,4.65l4.05-1.23ZM449.87,171a10.67,10.67,0,0,1-3.21.6c-2.1-.28-4.7-2.17-3.83,2.51.25,1.34-1.43,3-2.23,4.59-2.22-2.9-1,1.19-1.85.92.41.59.92,1.7,1.21,1.65a6.17,6.17,0,0,0,2.92-1.27,57.26,57.26,0,0,0,5.63-5.71c.73-.85.91-2.18,1.34-3.3.4-1.31.8-2.61,1.21-3.92l2.46,4c-1,2.77-2,5.54-3.07,8.3l6-3.5-4.68,6.52.89.7,13.66-9.37c-.23-.91-.71-2.79-1.2-4.66l-6.52,4.12-5.13-2.12c.32-2.32.65-4.64,1-7.29,1.39-1,3.53-2.42,5.44-4.09.46-.39.14-1.67.18-2.54a7.08,7.08,0,0,0-2.13.15c-1.4.57-2.73,1.32-4.53,2.22,1.38,6.22-5.31,4.75-8.63,7.15Zm13.18,56.56c-1.6.42-3.41.49-4.76,1.32-4.18,2.57-7.87,6.72-12.35,7.8-4.75,1.15-4.87,2.71-3.43,6.33l2.31-1.2c1.29,1.25,2.51,3.15,3.21,3,2-.5,5.17-.6,4.13-4.29a19.53,19.53,0,0,1,2.89-.6c2.87-.15,5.75-.19,8.63-.28-.15,2.67,1.08,5.77-2.78,7.19-.87.32-1.24,2-2.23,3.79,4.92-1.27,4.79-1.3,5.71-5,.18-.73,1.73-1.41,2.73-1.57a10.15,10.15,0,0,1,3.27.52c1.75-5.59,3.09-6.36,7.31-3.63l-26.83,21.25.8,1,11.3-5.6.81,1.37L461,262.87l12.86-5.16c-.09-.39-.17-.78-.25-1.17L463.19,255l7.95-4.43c.31.57,1,1.23.87,1.7-.81,3.25,2.13,2.46,3.49,3.07.49.23,2.5-1.39,2.41-1.62a23.13,23.13,0,0,0-2.16-3.43,8.83,8.83,0,0,1-.6-1.73c1.74-2.71,3.25-6,7.38-3.24L480,249.14c3.54-1.8,7.32-2.49,7.88-4.22,2-6.15,8.74-5.69,12.55-10.42-5.61.63-10.68,1.49-15.57-1.12-1.85-1-4.51-2.75-6.78,0-.09.11-1.69-.53-1.77-1-.52-2.85-1.36-1.65-2.65-.47a26.28,26.28,0,0,1-4.21,2.57c0-3,.05-5.19,3.4-6.46s6.63-3.44,9.93-5.21l-.13.09,4-.54c1.39-3.45,2.77-6.91,4.25-10.59l-4.2,2.9c-2.11-5.06,8.18-4.09,4-9.6-2.72.94-6.72,1.08-8,3-3.33,5.1-8.22,8.2-12.62,12-1,.82-2.37,1.12-3.85,1.79v3.58ZM566.1,96.5c.32,1,.57,2,1,2.92,2,4.43,3.4,4.44,7.07.1l4.11-2.11c1.22.5,2.34,1.37,3.18,1.15.69-.17,1-1.66,1.68-2.85l3.89,4.82L578.4,104a12.48,12.48,0,0,0-1.28,1.64c-1.91,3.09-3.77,6.21-5.65,9.31-2.23-.82-5.06-1.07-6.52-2.61s-1.59-4.38-2.6-7.62c-1.8,4.28-3.35,7.94-4.9,11.62l-3.2-1.65c-1.16,4.48-2.16,8.36-2.85,11H544c-1.11-4.62,3.81-2.25,5.31-4.31-2.23-2-6.75-2.57-4.56-6.89a86.85,86.85,0,0,1,5-8.09c.72-1.09,1.64-2,2.85-3.55l-9.77.44,3.56,3.07-4.09,1.8c-.52-1.45-.89-2.51-1.27-3.56L533.15,109l.92,1.94,6.56-2.38,1,1.65-13.59,9.25c0-3.58.64-6.15-.2-8.08-.69-1.59-3-3-4.82-3.48-2.9-.8-4.53,1.73-3.58,3.81,2.09,4.54.36,7.43-3,10.11l2.92,6.72,1.21-.53c-.39,1-.78,2.07-1.24,3.27.83,0,1.31.14,1.45,0,2.65-3,5.18-5.85,8.72-.82.39.57,2.43.09,3.68-.1a8.75,8.75,0,0,0,2-.63l1.92,5.12,1.61-.33c-1.06-4.9,0-8.35,5.49-8.93-.39,3.09,1.77,6.68-2.27,9.08-1.63,1-2.61,3-4.43,5.21l-3.19.16,5.06,3.51-5.73,2.28,4.92,3.23-2.94,6c.28.43.57.86.86,1.28l12.83-5.53V144c4.52,4.74,5.21-1,7.77-1l-6.3,5.18,2.37-8.68-3.9,3-7.3-5.62c4.16.43,7.11,1.49,9.52.76,2-.61,1-2.84-.79-3.91a7.73,7.73,0,0,1,1.8-1.65,28.94,28.94,0,0,1,4-1.18c-.66-1.34-1.15-2.34-1.65-3.34,4.13-2.86,10.22-3.23,13-.79,5.61-7,5.61-7,3.74-8.8.78-1.19,1.43-2.18,2.08-3.15,2.89,2.71,5.65,2.48,8.64-.1-3.26-3.11-6-2.12-8.64.15-.76,0-1.53-.07-2.31-.13,7.62-5.59,15.22-11.22,22.9-16.73,1.41-1,3.4-1.23,4.73-2.31,5.58-4.51,11-9.2,16.46-13.86q4.47-3.47,9-6.92c-5.09,0-8.91,1.43-8.83,7.07l-8.76-1.51,4.54-1.7c-.37-.43-.74-.87-1.12-1.3l-9.79,1.18c.11-.36.41-1.39.93-3.12-2.74,1.67-4.79,2.91-7.89,4.81h4.66l.76,1.37-8.34,6.12c0,.28.12,1.36.13,1.53-2.25,0-4.35-.6-5.71.14-2,1.09-3.32,3.33-5.19,4.72A11.65,11.65,0,0,1,575.37,96c-.76.18-1.66-.33-2.5-.53l.27,3.07-3,1.49.29-1.29-4.49-2c1.11-1,2.06-2.43,3.37-3,3.46-1.53,7.08-2.7,10.39-3.92-.6-2.89-1-4.74-1.36-6.51-1,.09-2,.45-2.62.13S574.9,82,574,80.46c-.49,2.42-.73,3.63-1,5.08l-2.48-2-.46.45c.68,1.23,1.36,2.47,1.89,3.41L560.14,97.63l.71,1.11ZM503.23,502.41c.42,2.89.84,5.77,1.26,8.62l5.33-1.53c.38-4.67-3.07-5.91-6.74-6.93a15,15,0,0,0-1.46-3.19c-1.4-1.8-3-3.45-4.56-5.13-1.89-2.05-3.94-4-5.7-6.14s-3.46-4.77-5.18-7.17l1-.92-6.6-.75c3.56,5,5.84,10.82,10.08,13.43,3.92,2.42,2.17,8.41,6.75,8.79l2-1.88Zm.92-281.92c1.2.48,2.41,1.39,3.59,1.34,1.69-.06,3.59-1.59,5-1.15,4.1,1.28,6.25-.43,8.77-3.43,1.75-2.08,5-2.91,7.8-4.44l1.79-7.26-4.77,1.63,1.58-4.1-6.54,5.74,2.3,1.49c-.2.43-.39.87-.59,1.3a28.44,28.44,0,0,1-5-1.73c-4.83-2.74-7.21-2.51-10.37,1.57-.48.62-.45,2.47-.51,2.46-5.8-.63-3.41,3.05-3,5.66-11.32.5-12.7,1.17-14.17,7.23l10.17-4.52C502.16,224.3,504.1,225.36,504.15,220.49ZM459.71,387.9c3.24-5.5-3.66-5.64-4.13-9.18-1.54,4.64,1,7.07,4.25,9.08l9.73,15.54,12.4-8.71c-3.44-3.62-6.26-6.3-8.73-9.28-2-2.39-2-5.94-4.6-8.09a72.9,72.9,0,0,1-5.8-5.6c-3.07-3.13-6.1-6.3-9.15-9.45,2.65,13.38,11.45,22.72,20.18,33-2.55.15-4.67.91-5.94.19-1.6-.91-3.72-3.2-3.52-4.6C465.14,385.5,462.21,387.3,459.71,387.9Zm36.45,47.41L490.45,433l5.83,6.47-.43.65-3-1.16,2,5.53q-9-4.76-18.15-9.5l-8.22-10.36a20.62,20.62,0,0,0,.73,7.3c.9,3.93,3.87,5.09,7.56,2.93l-2.34,4.31c1.11,1.32,2.62,2.52,3.32,4.08,2.76,6.15,5.41,12.27,12.76,14.37a5.06,5.06,0,0,1,2.16,2c1.65,2.2,3.18,4.5,4.79,6.73.85,1.18,1.92,2.23,2.65,3.48,1.75,3,3,6.35,5.11,9.11,1.94,2.59,3.34,5.72,7.64,6.34,1.92.28,3,4.62,5,6.55a54.2,54.2,0,0,1,8.37,10.43c.78,1.25,2.68,1.8,3.89,2.55,1.64,1.79,3.22,3.63,4.95,5.31a14.26,14.26,0,0,0,2.82,1.72l-.57,1.93,9.25-1.18c-2.07-3.33-3.88-6.21-5.68-9.09l1.07-.77,6.79,7.46c1.29-5.38,4-2.22,6.53-1.55-.37-1.29-.84-2.65-1.67-2.92-6.82-2.26-7-3.05-1.92-8.6-.2-.43-.39-.87-.58-1.3l-6.44,2.87.73,2.88c-2.42,0-4.55-.16-6.64,0-4.13.36-5.25-1.11-3.66-5.06l5.66-3.91c-3.31-2.15-3.89-6.9-8.69-6,.61-7.17-8.33-8.52-8.16-15.42l-1.28.37-2.33,4c-9.18-3.68-19.47-5.54-24.18-17.27l5.86,4.86,1.05-.91c-1.57-2.25-3.13-4.51-4.57-6.58L505,450l1.59,1.33,9.39-3.74,6.05,8.64L515.51,455c4,4.05,5.68,9.09,11.94,8.7,1.44-.08,3.32,1.94,4.48,3.4,1.39,1.75,1.81,4.39,3.39,5.85,3.33,3.06,1.19,3.95-2,5.27,2.9,1.13,5.91.93,7.94,2.25,3.89,2.53,8.79,5.27,10.39,9.13,2.17,5.22,5.5,7,10.74,8.31.25-2,.49-4,.74-6-7.23-.74-12.46-6.29-11-11.83l8,4.41,16.25,16.58c.33-1.87.27-4.12-.89-5.23-2.14-2-4.91-3.39-8.42-5.69h5.43l-10.35-6.67c-2-2.95-3.51-6.64-6.24-8.62-2.27-1.66-6-1.31-9.74-1.95l1.89,3.78-.63.46L528,458.39c8.89-7.37,8.89-7.37,6.14-10-1.91.21-4.15.35-5.18-.7-1.36-1.39-1.78-3.72-2.55-5.52l-4.11,2.06,2.95,6.39-1.55.93c-2.32-3-4.69-6-6.92-9.1-.58-.81-.45-2.53-1.1-2.81-4-1.77-4.72-7.47-.3-11.71-2.17-.45-3.71-1.08-5.21-1-3.15.13-5.13-2.41-4-5.55.18-.52.34-1,.52-1.57l-4.62-1.16c.33-1.36.61-2.54.9-3.76-2.41-.57-4.95-.51-6.61-1.7-3.05-2.17-5.55-5.12-8.36-7.65a4,4,0,0,0-2.22-.73c-1.43-.11-2.87,0-4.56,0l12.21,16.32c-2.93.62-4.95.83-5.33-2.62a4.57,4.57,0,0,0-1.22-2.52c-2.49-2.45-5.08-4.78-7.67-7.12-.76-.69-1.63-1.26-2.9-2.23.12,1.16.14,1.33.16,1.49,1,7,9.06,9.11,10.87,15.57.08.29,1.05.28,1.57.5,1,.4,2.31.62,2.74,1.36,1.68,2.88,3.05,5.93,4.54,8.92C496.18,434.75,496.17,435,496.16,435.31Zm-21.68-13.16c-3.61-4.27-7.15-8.59-10.85-12.78-3.53-4-9.28-6.07-10.4-12.27a6.09,6.09,0,0,0-2.74-3.69c-2.58-1.47-5.47-2.41-9.26-4,7,12.36,17.53,21.68,24.15,34.95C468.12,418.67,470.83,422.29,474.48,422.15Zm102.62,61.1,2.69-2.18,25.41,31.39,2.14-2.11c-8.51-13.68-21.22-23.43-32-34.05l-6.63,4.79c1-5.34-1.58-5.78-6.08-5.16l14.42,15.62Zm-469.53,60,1.3.59c4.39-3.93,10.25-6.2,12.86-12.2.86-2,3-3.45,4.79-5,2-1.77,4.26-3.33,6.69-5.2.12.26-.17-.34-.46-.94h5.56c-.26-5.79,4.76-10.32,9.31-8.56v-5.36c-7.13,6.11-16.73,8.24-22.8,15.85l-1.63-1.86-4.75,12.75-1.1-.28L117,530C113.9,534.4,110.74,538.83,107.57,543.27ZM613.12,77.49l18.15-12.31c-8.52-3.86-10.61-3.15-14.92,4.1a78.06,78.06,0,0,0-9.34.17c-.53.06-.78,2.33-1.36,4.27l6.15-2.4Zm10.07-24.82c4.51.3,7.59-2.22,6.55-5.23-3.54,1.85-7.17,3.63-10.68,5.61-4.76,2.68-9.44,5.48-14.11,8.32-.44.27-.47,1.17-.78,1.73-.9,1.59-1.83,3.17-3.6,6.2,7.56-4.17,14-7.54,20.22-11.33C622,57.21,622.26,54.83,623.19,52.67ZM636,101.6l-4.59-3.47c-.82,2.45-1.6,4.8-2.39,7.15l-1-.33-.26-4.08-8.76,3.9.27.9,4.19.23-7.65,6c2.34.8,4.76,1.78,7.27,2.41,1,.24,2.18-.31,3.28-.5l-2.06-2.55ZM164.25,70.21l-.68,1.15,23.7,28.5c.42-5.6-7.91-5.82-3.61-11.19C175.87,83.81,173,73.7,164.25,70.21ZM682.65,88l-11.8,9.24.89,1.57a34,34,0,0,1,4.52-1.56c3.62-.73,5.9-2.68,8.5-5.5,3.59-3.87,4.38-3.15,4.79-7.84C687.26,85.82,681.15,81.88,682.65,88Zm-166,71.8c-8.34.26-13.36,5.34-17.71,11.31l9.44-6.5c-.43,2.8-.63,4.13-.86,5.59C517.61,165.9,517.61,165.9,516.61,159.83ZM571.15,39.14l1,1.12c1-.38,2.37-.49,3.09-1.2,4.1-4.11,8.06-8.37,12.06-12.58l-.22-.77L566.84,38.9c.25.84.82,2.85,1.78,6.16C569.84,42.21,570.49,40.67,571.15,39.14ZM498.32,567.06c-.25-1.82,0-3.38-.67-4.32a54.92,54.92,0,0,0-7.42-9.21c-1.12-1-3.51-3.85-5.24-1.53-.95,1.27-.55,5.1.66,6.18C489.3,561.42,493.64,563.88,498.32,567.06ZM509.94,92.3,512.71,96l2.77-2.43-4.49.45c2.08-1.65,3.64-2.28,3.9-3.25.33-1.24-.4-2.75-.67-4.15-.92.27-1.84.56-2.76.81a7.7,7.7,0,0,1-2.29.54c-5.2-.26-1.9,3.2-2.29,5.26l-5.4.77,5.43,5.74Zm38.47,2.58c-4.71-5-6.94,2.54-11,1.48l2.83-1.78c-4.35-1.32-5.7.41-5.87,3.83,0,1-1.12,2-1.73,3l-1.88-1.73L528,103.38l.84,1.63c1.58-.72,3.17-1.39,4.72-2.15,3-1.46,5.91-2.94,8.82-4.49C544.38,97.29,546.35,96.07,548.41,94.88Zm-27.29,70.63c-3.4,2-7.13,3.83-10.3,6.34-1.43,1.13-1.74,3.67-2.79,6.1l5.62-.93c1-2,1.81-3.87,2.73-5.83l4.74,3.42Zm-21.39,34.18.91,2c3.23-.94,6.87-1.26,9.53-3,1.49-1,1.37-4.41,2-6.74l-1.42-1.17Zm-24.62,7-1.6-1.8L459.25,215c3.54.17,7.28-2.94,8.6,3l4.4-3.05-2.52-5.53Zm-199.2-85,2.79-2a95.46,95.46,0,0,0-4.77-9.16c-.59-.9-2.93-1.61-3.78-1.14s-2,3-1.51,3.7A105.51,105.51,0,0,0,275.91,121.64ZM489.39,519.89l9.07,8.17,3.94-3.5-7.16-6.27c.21,1.72.28,2.34.36,3Zm36.49-373.22a56.62,56.62,0,0,0,.34-6.52,47.12,47.12,0,0,0-1-5.32c-1.31.57-2.6,1.15-3.92,1.68-.62.25-1.27.39-.64.2,1,4.63,1.73,8.12,2.53,11.86Zm-46.64-11.54-12.78,7.92c.62.72.85,1.2,1.05,1.18,3.66-.27,7.32-.57,11-1,.29,0,.71-.73.72-1.13C479.27,139.84,479.24,137.53,479.24,135.13ZM375.79,374.87l1.91-1.67-13.58-15.59-1,.82C366.59,364.53,370.48,370.27,375.79,374.87Zm174,95.6,1.23-2.19c-2.71-2.22-5.3-4.59-8.18-6.56-.71-.48-2.34.39-3.55.64.29,1.21.19,3.09.93,3.52C543.31,467.65,546.61,469,549.83,470.47Zm-39.9-357.61,11.13-6.94c-5.55-5.4-6.89,3.88-10.73,1.12C510.19,109,510.09,110.48,509.93,112.86Zm88.85-40.71c-.4-.43-.8-.86-1.21-1.28-5.12,0-8.43,3.48-7.62,9.19Zm-26,434.71c-2.1-1.41-3.68-2.54-5.34-3.55s-3.64-2.08-5.47-3.12l-.81,1.42,10.4,8.87C572.16,508.8,572.57,507.59,572.82,506.86Zm12.48-4.65,7.85-2.59-10.32-4.34-1.15,1.24ZM565.21,530l-9-7.1c-.7,1.55-2.13,3.39-1.71,4a7.72,7.72,0,0,0,4.21,2.95C560.62,530.42,562.72,530,565.21,530Zm38.16-478.4c.38.5.75,1,1.12,1.51l8.58-7.74-.49-1L603,47.71l.27,1.37,2.61.85Zm-103.49,111c3.62-1.55.41-4.92-.67-6.11-3.09-3.43-4.32,1.42-6.29,1.39Zm84.21-142.5c1,.81,2.14,2.21,3.56,2.64.92.28,2.61-.55,3.35-1.4a47.36,47.36,0,0,0,3.83-6Zm59.68,36.65c-.39-.65-.79-1.3-1.18-2l-10.13,6.49,1.32,2ZM547.63,520.47l5.9,3.31,2-4.51L549,516.54Zm-15-434.65c-.66-2.56-1.38-5.34-2.18-8.46l-5.88,3.17ZM455,253.61c-3.18,1.73-10.13,1-6.62,8.07ZM605.72,9.16l-.65-1.55c-1.54.82-3.5,1.32-4.52,2.58s-.81,3.08-1.15,4.67l1.29.32ZM451.11,155.27l.24,1.08c1.74,0,4,.67,5-.18s.79-3.22,1.11-4.93l-1.16-.41Zm43,27.17-1.26-1.57-7.56,5.87,1.2,1.47,3.43-3.73,1.81,2.59Z"/><path class="cls-1" d="M547.18,174.59l-1-2.14.82-2,7.23,3.34,2.64-5.85-6.43-1.29,9.86-10.2-.13.14c2.62-1.82,5.56-3.32,7.8-5.53A32,32,0,0,1,582.57,143c1.78-.49,3.37-2,4.8-3.35,2.68-2.46,4-1,5.34,1.61l-7.63,5.5a27.57,27.57,0,0,0-5.52.14c-.47.1-.47,2-.87,3a8,8,0,0,1-1.32,1.94c-3.53,4.37-7,8.75-10.69,13-.33.39-1.54,0-2.88,0,2.73,2.55,4.84,4,.93,7-4.66,3.57-8.51,8.18-12.76,12.28-1.38,1.33-2.65,2.59-4.09-.37-.48-1-3.06-.95-4.68-1.38l-.09.15L550.2,177Z"/><path class="cls-1" d="M474,529.75l-2.74-2.54-11,1.49a4.7,4.7,0,0,1,.55-1.28c4.49-5,4.48-5.07,3.62-6.24-1.79-2.44-1.79-6.39-6.17-6.66-.89-.06-1.66-1.82-2.74-3.09l-2.2,4.11L447,510.25c.13-2.43-.9-5.43-5.34-6,.45-2.55-6.54-2.53-2.17-6.76,1.17-1.13.59-4.07.81-6.18l-.13.14,3.71.51c-1.83,4.51,3.8,3.33,4.84,6,.29-1.1.57-2.21.93-3.61,2.48,4,4.49,7.74,7.05,11.1,3.56,4.67,8.09,8.68,11.13,13.63,2.13,3.45,7.79,5.17,6,10.8Z"/><path class="cls-1" d="M428.54,514.17l3.7.78c-.32,1.44-.91,2.71-.77,3.89.12,1,1.11,1.88,1.17,3.32l-20.12-19.5c-.74,1-1.33,1.73-2,2.61l-3.1-2.8,4.93-4.15,1.52.75L408,485.35a15.75,15.75,0,0,1,12.88,9.5c2.19,4.85,4.84,9.49,7.05,14.33C428.59,510.54,428.35,512.28,428.54,514.17Z"/><path class="cls-1" d="M467.64,507.21c-7.23-.41-8.36-6.32-11.17-10.77-1.36-2.16-3.58-3.79-5.45-5.62-.46-.46-1.43-.73-1.51-1.2-.89-5.31-6.51-6.46-8.95-10.34-.58-.93-.61-2.2-1-3.74,2.64,0,5.28-.47,7.67.09,4.86,1.16,5.88,5.28,6.12,9.57.15,2.7,4.59,7.61,7.22,8.2s5,1.15,6,4.62C468.54,504.89,468.86,504.79,467.64,507.21Z"/><path class="cls-1" d="M625.41,151.69c1.11-.79,2.27-1.52,3.34-2.38,3.77-3,7.35-6.33,11.35-9,1.51-1,4-1,6-.82,1.52.17,2.91,1.42,4.44,2.23L637.43,152.8C636.58,146.12,636.17,146.11,625.41,151.69Z"/><path class="cls-1" d="M471.76,562.91l-16.71-10.76.71-1.31h2.18c-1-3.28-2-6.54-3-9.8l1.82-.45.57,5.16c1.85,3.3,7.92.24,8.57,6.53.36,3.55,4.45,6.7,6.86,10Z"/><path class="cls-1" d="M615.12,147.54c-2.34.32-4.68.77-7,.88-.94.05-1.91-.65-2.87-1l2.75-2.67c-.16-.65-.5-2-.74-3L621.78,137l-6.58,7.43Z"/><path class="cls-1" d="M615.12,147.54l.08-3.12c3.7-.21,7.37,1.89,11.14-1.26,2.78-2.33,6.76-3.23,10.21-4.76.25.49.49,1,.74,1.46-6.47,3.59-12.91,7.22-19.48,10.6C617.5,150.62,616.05,148.57,615.12,147.54Z"/><path class="cls-1" d="M356.13,409.78l-1,.78-3.33,5.56c-2.06-4.82-3.92-9.14-6.07-14.14l6.93.86C354.14,405.82,355.13,407.8,356.13,409.78Z"/><path class="cls-1" d="M81.56,393c-1.44-1.87-2-3.2.69-5.31,5.07-3.92,9.51-8.65,14.27-13a11,11,0,0,1,4.29-2.4Z"/><path class="cls-1" d="M557.51,183.86c.72-4.67,2.84-6.21,11-7.93a34.37,34.37,0,0,1,.41,4.85,2.39,2.39,0,0,1-1.59,1.58C564.15,183,561,183.36,557.51,183.86Z"/><path class="cls-1" d="M501.2,594.06c-3.92-1.61-7.37-2.89-10.68-4.46-1.18-.55-2-1.8-3-2.73a22.22,22.22,0,0,1,4.39-1C497.1,585.75,499.14,589.57,501.2,594.06Z"/><path class="cls-1" d="M440.32,491.28c-1.06.08-2.12.18-3.18.24s-2.31.1-4.29.19c.15.26-.31-.56-.87-1.57l6.57-2.4-7.42-4.31-.16-.82c2.43.32,5.67-.2,7.09,1.17,1.73,1.67,4.72,4.24,2.13,7.65Z"/><path class="cls-1" d="M382.6,426.05l-4.23,3.35-5.1-6.64,2.4-1.51,7,4.9A.69.69,0,0,0,382.6,426.05Z"/><path class="cls-1" d="M598.75,584l10.67,13.43-1.22,1.05q-5.66-6.44-11.33-12.86Z"/><path class="cls-1" d="M232.07,39.36V31.9l7.23,9.55-.85,1.37c-2.17-1.19-4.33-2.39-6.5-3.6A1.49,1.49,0,0,0,232.07,39.36Z"/><path class="cls-1" d="M522.58,58l-3.4-2L525,49.45c2.66,4.93-1.13,6.26-2.47,8.59Z"/><path class="cls-1" d="M633.23,134.27l-7.75-3.15c2-5,5.77.31,8.45-2.16C633.68,130.86,633.52,132.1,633.23,134.27Z"/><path class="cls-1" d="M453.48,549.18l-8.8-7.35,1.49-1.65,8.61,7.61Z"/><path class="cls-1" d="M674.43,49.73c-.21-.72-.84-1.81-.57-2.12,2.5-2.92,5.15-5.7,7.6-8.36-.61,5.27-3.51,9.54-7.18,10.34Z"/><path class="cls-1" d="M439.13,106.4,429,115.47l-1.2-1.41,10.26-8.87Z"/><path class="cls-1" d="M496.18,434.47l3.16.46c-.48-2.47-.92-4.72-1.37-7l.69-.72c3.85,4.36,7.87,8.59,11.48,13.14,1.65,2.07,1.14,4.05-1.92,4.11l-3.62-6.21-1.39.68a20.05,20.05,0,0,0,1.13,4.5c.63,1.22,1.89,2.13,2.55,3.47-5.45-2.19-8.6-6.45-10.73-11.63C496.17,435,496.18,434.75,496.18,434.47Z"/><path class="cls-1" d="M452.18,237.49l10.87-9.92,3.15-2.12c.31,1.52,1.26,4.13.84,4.37C462.21,232.58,457.16,235,452.18,237.49Z"/><path class="cls-1" d="M480.13,160.62l-4.69.74c.12-2.2.23-4.34.36-6.48s1.46-2.13,4.32-.37C480.13,156.55,480.13,158.58,480.13,160.62Z"/><path class="cls-1" d="M331.13,381.46l-1,1.11c0-.37,0-.74,0-1.11l1.06.13Z"/><path class="cls-1" d="M532.22,486.45c.11.3.42.72.32.88-2.44,4.08,1.25,6.36,2.69,9.29-9.16-5-11.92-8-11.65-14Z"/><path class="cls-1" d="M551.62,81.87c.63-.36,1.76-.66,1.81-1.09,1-8,5-10.19,11.68-6.47.39.22,1.12-.16,2.41-.39-1.51,2.38-2.7,5.9-3.93,5.92-4.17,0-7.39,5.64-12,2C551.61,81.8,551.62,81.87,551.62,81.87Z"/><path class="cls-1" d="M482.76,222.87l-9-3.05,7.5-3.76c.57,2.78,1,4.83,1.4,6.89Z"/><path class="cls-1" d="M592.08,96l-4.29-3.89,9.54-1.58.66,1Z"/></g></g></svg>