<svg id="Layer_1" data-name="Layer 1" xmlns="http://www.w3.org/2000/svg" viewBox="0 0 481.98 200.31"><defs><style>.cls-1{fill:#fff;}</style></defs><title>tap-sign</title><path class="cls-1" d="M230.18,91l15.07-70.46H244a31,31,0,0,0-7.87,1,15.16,15.16,0,0,0-6.36,3.38,16,16,0,0,0-4.24,6.57A31.12,31.12,0,0,0,224,42.07a19.57,19.57,0,0,0,.23,3.3,14.29,14.29,0,0,0,.5,2,7,7,0,0,0,.49,1.17,1.43,1.43,0,0,1,.23.72,20,20,0,0,1-4.88-.54A9.06,9.06,0,0,1,217,47a7.59,7.59,0,0,1-2.18-3.17,13.7,13.7,0,0,1-.76-4.84,27.83,27.83,0,0,1,2-10.31,23.07,23.07,0,0,1,6.31-8.86,32.42,32.42,0,0,1,11.25-6.18,52.69,52.69,0,0,1,16.78-2.34c2.15,0,4.07.06,5.75.18s3.23.27,4.67.44,2.8.38,4.08.6,2.57.43,3.87.6,2.67.32,4.11.44,3,.18,4.75.18a33.83,33.83,0,0,0,7-.67A32.28,32.28,0,0,0,290,11.52c-.18,4.67-1.38,8.1-3.61,10.26S280.91,25,276.69,25a45.16,45.16,0,0,1-8-.73q-4.08-.72-8.5-1.61L245.46,91Z" transform="translate(-10.16 -11.31)"/><path class="cls-1" d="M325.06,72a48.2,48.2,0,0,1-3.27,7.48,31.33,31.33,0,0,1-3.67,5.35,20.18,20.18,0,0,1-3.87,3.53,18.22,18.22,0,0,1-3.84,2.08,16.43,16.43,0,0,1-3.59,1,21.34,21.34,0,0,1-3.11.26,10.17,10.17,0,0,1-7.2-2.47c-1.79-1.64-2.87-4.08-3.25-7.3a40.52,40.52,0,0,1-2.86,3.56,21.55,21.55,0,0,1-3.48,3.12,17.55,17.55,0,0,1-4.28,2.23,15.3,15.3,0,0,1-5.23.86,16.06,16.06,0,0,1-5.3-.88,11.63,11.63,0,0,1-4.52-2.91,14.84,14.84,0,0,1-3.17-5.3,23.67,23.67,0,0,1-1.19-8,44.87,44.87,0,0,1,.73-7.8,49.22,49.22,0,0,1,2.23-8.31,46.88,46.88,0,0,1,3.77-8,31.57,31.57,0,0,1,5.3-6.75A24.09,24.09,0,0,1,282.14,39a20.34,20.34,0,0,1,8.47-1.74q4.53,0,6.57,1.56a4.68,4.68,0,0,1,2.06,3.84v.78l1.14-5.66h15.33L308.07,74a11.23,11.23,0,0,0-.36,1.74,14.09,14.09,0,0,0-.11,1.69Q307.6,82,312,82a5.4,5.4,0,0,0,2.88-.81A9.39,9.39,0,0,0,317.27,79a15.07,15.07,0,0,0,1.92-3.19,28.17,28.17,0,0,0,1.4-3.87Zm-26.81-24a4.26,4.26,0,0,0-.21-1.17,4.36,4.36,0,0,0-.7-1.35A4.1,4.1,0,0,0,296,44.33a4.63,4.63,0,0,0-2.14-.44,7.07,7.07,0,0,0-4.23,1.45A15.86,15.86,0,0,0,286,49.21a30.62,30.62,0,0,0-3,5.49A50.65,50.65,0,0,0,280.82,61a51.2,51.2,0,0,0-1.38,6.39A39.1,39.1,0,0,0,279,73a15.29,15.29,0,0,0,.57,4.73,6.27,6.27,0,0,0,1.38,2.46,3.26,3.26,0,0,0,1.74,1,10.72,10.72,0,0,0,1.66.15,6.09,6.09,0,0,0,2.52-.6A8.79,8.79,0,0,0,289.39,79a12.89,12.89,0,0,0,2.23-2.94,14.39,14.39,0,0,0,1.54-4.1Z" transform="translate(-10.16 -11.31)"/><path class="cls-1" d="M310.93,117.62,328.7,33.86H344l-1.72,8a21.59,21.59,0,0,1,5.35-3.27,17.7,17.7,0,0,1,7.07-1.3,15,15,0,0,1,5.09.86A9.91,9.91,0,0,1,364,41a14.07,14.07,0,0,1,2.76,5.17,27,27,0,0,1,1,8,66.37,66.37,0,0,1-.49,7.77,54,54,0,0,1-1.69,8.37,46,46,0,0,1-3.15,8.05,26.65,26.65,0,0,1-4.85,6.83,22.56,22.56,0,0,1-6.89,4.76,22.05,22.05,0,0,1-9.12,1.79,17.41,17.41,0,0,1-3.53-.31,11.25,11.25,0,0,1-2.57-.83,6.82,6.82,0,0,1-1.77-1.22,8.75,8.75,0,0,1-1.17-1.43L327,113.77ZM334.21,80a3.77,3.77,0,0,0,1.27,1.66,4.32,4.32,0,0,0,2.78.78,8.86,8.86,0,0,0,5-1.43,14.24,14.24,0,0,0,3.84-3.79,24.19,24.19,0,0,0,2.81-5.38,48.41,48.41,0,0,0,1.87-6.18,54.22,54.22,0,0,0,1.06-6.26,50.81,50.81,0,0,0,.34-5.59,16.32,16.32,0,0,0-.57-4.83,7.17,7.17,0,0,0-1.38-2.65,3.5,3.5,0,0,0-1.74-1.12,7.22,7.22,0,0,0-1.66-.23A7,7,0,0,0,344,46.25a11.61,11.61,0,0,0-3.51,3.93Z" transform="translate(-10.16 -11.31)"/><path class="cls-1" d="M426.33,72A43,43,0,0,1,423,79.43a30.5,30.5,0,0,1-3.85,5.35,20.81,20.81,0,0,1-4.1,3.53A20.19,20.19,0,0,1,411,90.39a18.18,18.18,0,0,1-3.77,1,23,23,0,0,1-3.19.26,13.26,13.26,0,0,1-4.47-.73,9.18,9.18,0,0,1-3.61-2.28,11,11,0,0,1-2.42-3.95,16.71,16.71,0,0,1-.88-5.77,27,27,0,0,1,.21-3.2c.14-1.16.34-2.41.62-3.76l6.39-29.88H396.3l.88-4.26h3.48l3.22-14.71L419.63,21,416,37.81h6.39l-.83,4.26h-6.39L408.35,74a10.08,10.08,0,0,0-.34,1.74c-.05.58-.07,1.14-.07,1.69a3.81,3.81,0,0,0,1,3.09,5,5,0,0,0,3.27.86,7,7,0,0,0,3-.7,9.79,9.79,0,0,0,2.73-2,13.71,13.71,0,0,0,2.23-3A18.36,18.36,0,0,0,421.86,72Z" transform="translate(-10.16 -11.31)"/><path class="cls-1" d="M473.67,43.89c-.59,1.14-1.22,2.38-1.9,3.71a36.54,36.54,0,0,1-2.34,3.95,29.72,29.72,0,0,1-3,3.69,14.84,14.84,0,0,1-3.77,2.89A53.24,53.24,0,0,1,460.05,72a35.93,35.93,0,0,1-5.48,10.49,24,24,0,0,1-7.74,6.65,19.76,19.76,0,0,1-9.43,2.34,24.32,24.32,0,0,1-6.83-.91,13.68,13.68,0,0,1-5.41-2.91,13.36,13.36,0,0,1-3.53-5.19,21,21,0,0,1-1.27-7.77,45.67,45.67,0,0,1,.62-7.09,51.84,51.84,0,0,1,2-8.19,48.72,48.72,0,0,1,3.58-8.23,31.31,31.31,0,0,1,5.41-7.2,25.66,25.66,0,0,1,7.45-5.12,23.25,23.25,0,0,1,9.77-2q12.58,0,13.51,14.35a6.65,6.65,0,0,0,2.52-1.2,14.76,14.76,0,0,0,2.13-2,20.58,20.58,0,0,0,1.72-2.24c.5-.76.91-1.4,1.22-1.92Zm-20,15.85c-1.7-.63-2.54-2.22-2.54-4.78q0-4.11,3-5.56A10.28,10.28,0,0,0,453,44.64a3.26,3.26,0,0,0-2.88-1.32,5.61,5.61,0,0,0-3.64,1.48,17,17,0,0,0-3.33,3.92,34.29,34.29,0,0,0-2.83,5.59,57.82,57.82,0,0,0-2.18,6.47,56.69,56.69,0,0,0-1.4,6.57,39.44,39.44,0,0,0-.5,5.9,26.39,26.39,0,0,0,.29,4.31,6.73,6.73,0,0,0,.93,2.62,3.37,3.37,0,0,0,1.69,1.33,7.87,7.87,0,0,0,2.55.36,5.75,5.75,0,0,0,3.82-1.71A17.8,17.8,0,0,0,449,75.48a37.68,37.68,0,0,0,2.83-7A56,56,0,0,0,453.66,59.74Z" transform="translate(-10.16 -11.31)"/><path class="cls-1" d="M239.46,166a61.06,61.06,0,0,1-5.12,7.27,38.31,38.31,0,0,1-6.5,6.29,31.63,31.63,0,0,1-8,4.44,26.56,26.56,0,0,1-9.64,1.69,22.93,22.93,0,0,1-6.86-1,13.51,13.51,0,0,1-5.24-3,13,13,0,0,1-3.35-5.22,22.52,22.52,0,0,1-1.17-7.72,46.5,46.5,0,0,1,.62-7.09,52.71,52.71,0,0,1,2-8.24,49.31,49.31,0,0,1,3.59-8.26,30.89,30.89,0,0,1,5.4-7.22,26,26,0,0,1,7.4-5.12,22.64,22.64,0,0,1,9.62-1.95,16.86,16.86,0,0,1,5.82.86,9.81,9.81,0,0,1,3.63,2.24,7.3,7.3,0,0,1,1.87,3.14,12.37,12.37,0,0,1,.52,3.53,11.48,11.48,0,0,1-.44,3.41,7.28,7.28,0,0,1-1.22,2.41,4.85,4.85,0,0,1-1.82,1.46,5.27,5.27,0,0,1-2.18.46,6.88,6.88,0,0,1-3.74-1.24,18,18,0,0,0,1.3-6.29,6.1,6.1,0,0,0-.73-3.17,2.43,2.43,0,0,0-2.23-1.19,5,5,0,0,0-3.33,1.5,18.67,18.67,0,0,0-3.2,4,39.08,39.08,0,0,0-2.83,5.72,63.46,63.46,0,0,0-2.26,6.7,62.41,62.41,0,0,0-1.5,6.94,40.54,40.54,0,0,0-.55,6.42,16.61,16.61,0,0,0,.49,4.44,6.34,6.34,0,0,0,1.46,2.73,5.23,5.23,0,0,0,2.39,1.37,12.79,12.79,0,0,0,3.35.39,18.42,18.42,0,0,0,5.74-.83,19.85,19.85,0,0,0,4.81-2.28,27.16,27.16,0,0,0,4.23-3.43q2-2,4-4.21Z" transform="translate(-10.16 -11.31)"/><path class="cls-1" d="M294,166a46.79,46.79,0,0,1-4.8,10.44,25,25,0,0,1-5.2,6,13.92,13.92,0,0,1-5.14,2.68,19.74,19.74,0,0,1-4.65.62,15.36,15.36,0,0,1-5.93-1,10.27,10.27,0,0,1-3.84-2.71,10.46,10.46,0,0,1-2.11-3.84,15.43,15.43,0,0,1-.64-4.44,31.68,31.68,0,0,1,.75-6.32q.75-3.6,1.64-7.4c.58-2.53,1.13-5,1.63-7.33a30,30,0,0,0,.76-6.08c0-3.63-1.29-5.45-3.85-5.45a5,5,0,0,0-2.7.78,9,9,0,0,0-2.29,2.1,16.31,16.31,0,0,0-1.87,3.12,29.68,29.68,0,0,0-1.45,3.82L247.09,185H231.77l15.43-72.38,15.74-2.13-5.71,26.81a19,19,0,0,1,3.4-3.09,16.41,16.41,0,0,1,3.3-1.8,14.48,14.48,0,0,1,3-.83,18.39,18.39,0,0,1,2.68-.21,15.88,15.88,0,0,1,4.72.68,9.41,9.41,0,0,1,6.24,5.87,15.14,15.14,0,0,1,.88,5.46,29.64,29.64,0,0,1-.39,4.6q-.39,2.46-1,5c-.38,1.71-.79,3.42-1.22,5.11s-.84,3.33-1.22,4.89-.7,3-1,4.34a18.57,18.57,0,0,0-.39,3.5,5.29,5.29,0,0,0,.91,3.22c.6.84,1.72,1.25,3.35,1.25a6.42,6.42,0,0,0,3-.67,7.46,7.46,0,0,0,2.34-1.93,15,15,0,0,0,1.9-3c.57-1.16,1.13-2.44,1.69-3.82Z" transform="translate(-10.16 -11.31)"/><path class="cls-1" d="M350,166a48.17,48.17,0,0,1-3.28,7.48,31.9,31.9,0,0,1-3.66,5.35,20.79,20.79,0,0,1-3.87,3.53,18.53,18.53,0,0,1-3.85,2.08,16.35,16.35,0,0,1-3.58,1,21.47,21.47,0,0,1-3.12.26,10.2,10.2,0,0,1-7.2-2.47c-1.78-1.64-2.86-4.08-3.24-7.3a42.45,42.45,0,0,1-2.86,3.56,21.55,21.55,0,0,1-3.48,3.12,17.44,17.44,0,0,1-4.29,2.23,15.28,15.28,0,0,1-5.22.86,16,16,0,0,1-5.3-.88,11.49,11.49,0,0,1-4.52-2.91,14.56,14.56,0,0,1-3.17-5.3,23.4,23.4,0,0,1-1.2-8,45.87,45.87,0,0,1,.73-7.8,50.18,50.18,0,0,1,2.23-8.31,48.45,48.45,0,0,1,3.77-8,32.21,32.21,0,0,1,5.3-6.75,24.14,24.14,0,0,1,6.89-4.68,20.27,20.27,0,0,1,8.47-1.74q4.52,0,6.57,1.56a4.67,4.67,0,0,1,2,3.84v.78l1.14-5.66h15.33L333,168a11.23,11.23,0,0,0-.36,1.74,14,14,0,0,0-.1,1.69q0,4.57,4.36,4.58a5.46,5.46,0,0,0,2.89-.81,9.36,9.36,0,0,0,2.41-2.16,14.28,14.28,0,0,0,1.92-3.19,26.94,26.94,0,0,0,1.41-3.87Zm-26.82-24a4.4,4.4,0,0,0-.9-2.52,4.15,4.15,0,0,0-1.33-1.09,4.55,4.55,0,0,0-2.13-.44,7.1,7.1,0,0,0-4.24,1.45,15.86,15.86,0,0,0-3.66,3.87,31.27,31.27,0,0,0-3,5.49,52.32,52.32,0,0,0-2.21,6.31,55.06,55.06,0,0,0-1.38,6.39,39,39,0,0,0-.46,5.64,15.29,15.29,0,0,0,.57,4.73,6.27,6.27,0,0,0,1.38,2.46,3.19,3.19,0,0,0,1.74,1,10.51,10.51,0,0,0,1.66.15,6.09,6.09,0,0,0,2.52-.6,9.06,9.06,0,0,0,2.55-1.76,13.18,13.18,0,0,0,2.23-2.94,14.09,14.09,0,0,0,1.53-4.1Z" transform="translate(-10.16 -11.31)"/><path class="cls-1" d="M403.7,166a46.79,46.79,0,0,1-4.8,10.44,25,25,0,0,1-5.2,6,13.92,13.92,0,0,1-5.14,2.68,19.74,19.74,0,0,1-4.65.62,15.36,15.36,0,0,1-5.93-1,10.27,10.27,0,0,1-3.84-2.71,10.46,10.46,0,0,1-2.11-3.84,15.44,15.44,0,0,1-.65-4.44,31,31,0,0,1,.76-6.32q.75-3.6,1.63-7.4t1.64-7.33a29.88,29.88,0,0,0,.75-6.08q0-5.44-3.84-5.45a5,5,0,0,0-2.7.78,9,9,0,0,0-2.29,2.1,15.81,15.81,0,0,0-1.87,3.12,31.24,31.24,0,0,0-1.46,3.82L356.78,185H341.45l11.28-53.21h15.33l-1.14,5.51a19,19,0,0,1,3.4-3.09,15.89,15.89,0,0,1,3.3-1.8,14.32,14.32,0,0,1,3-.83,18.37,18.37,0,0,1,2.67-.21,15.9,15.9,0,0,1,4.73.68,9.74,9.74,0,0,1,3.77,2.13,9.87,9.87,0,0,1,2.47,3.74,15.14,15.14,0,0,1,.88,5.46,29.64,29.64,0,0,1-.39,4.6q-.39,2.46-1,5c-.38,1.71-.79,3.42-1.22,5.11s-.84,3.33-1.22,4.89-.7,3-1,4.34a18.57,18.57,0,0,0-.39,3.5,5.29,5.29,0,0,0,.91,3.22c.6.84,1.72,1.25,3.35,1.25a6.45,6.45,0,0,0,3-.67,7.46,7.46,0,0,0,2.34-1.93,15.43,15.43,0,0,0,1.9-3c.57-1.16,1.13-2.44,1.68-3.82Z" transform="translate(-10.16 -11.31)"/><path class="cls-1" d="M437.22,193.54a29,29,0,0,1-3.3,9.25,19.18,19.18,0,0,1-4.81,5.5,14.9,14.9,0,0,1-5.53,2.65,24.37,24.37,0,0,1-5.54.68,16,16,0,0,1-4.6-.65,11.14,11.14,0,0,1-3.76-1.92,9.17,9.17,0,0,1-2.57-3.22,10.06,10.06,0,0,1-1-4.55,10.85,10.85,0,0,1,1.59-5.87,16.53,16.53,0,0,1,4.08-4.44,26.77,26.77,0,0,1,5.58-3.25,60.35,60.35,0,0,1,6.11-2.29l1.3-5.61a20.94,20.94,0,0,1-5.48,4.16,15.38,15.38,0,0,1-7.3,1.66,16,16,0,0,1-5.3-.88,11.49,11.49,0,0,1-4.52-2.91,14.56,14.56,0,0,1-3.17-5.3,23.4,23.4,0,0,1-1.2-8,44.87,44.87,0,0,1,.73-7.8,49.22,49.22,0,0,1,2.23-8.31,47.65,47.65,0,0,1,3.77-8,31.89,31.89,0,0,1,5.3-6.75,24.23,24.23,0,0,1,6.88-4.68,20.34,20.34,0,0,1,8.47-1.74q4.53,0,6.58,1.56a4.69,4.69,0,0,1,2,3.84v.63l1.14-5.51h15.33l-10.55,49.36a23.3,23.3,0,0,0,4.42-2,15.78,15.78,0,0,0,3.61-3,20.64,20.64,0,0,0,3-4.29,34.84,34.84,0,0,0,2.42-6h4.47a37.29,37.29,0,0,1-3.82,8.83,26.93,26.93,0,0,1-4.7,5.79A20,20,0,0,1,444,184a30.86,30.86,0,0,1-5.14,1.82Zm-14.81-2.76c-1.39.52-2.7,1.09-4,1.69a19.91,19.91,0,0,0-3.3,2,9.82,9.82,0,0,0-2.29,2.42,5.29,5.29,0,0,0-.85,2.94,3.71,3.71,0,0,0,.2,1.19,3.41,3.41,0,0,0,.65,1.14A3.13,3.13,0,0,0,414,203a3.79,3.79,0,0,0,1.61.32c1.11,0,2.24-.77,3.4-2.32a18.38,18.38,0,0,0,2.78-7.14Zm10.44-48.94a4.08,4.08,0,0,0-.21-1.15,3.81,3.81,0,0,0-.7-1.29,4.19,4.19,0,0,0-1.32-1.07,4.61,4.61,0,0,0-2.13-.44,7.1,7.1,0,0,0-4.24,1.45,15.86,15.86,0,0,0-3.66,3.87,30.62,30.62,0,0,0-3,5.49,50.65,50.65,0,0,0-2.21,6.31A51.2,51.2,0,0,0,414,161.4a39.1,39.1,0,0,0-.47,5.64,14.94,14.94,0,0,0,.58,4.73,6.39,6.39,0,0,0,1.37,2.46,3.26,3.26,0,0,0,1.74,1,10.73,10.73,0,0,0,1.67.15,6,6,0,0,0,2.34-.54,10,10,0,0,0,2.46-1.59,11.19,11.19,0,0,0,2.21-2.6,12.45,12.45,0,0,0,1.51-3.58Z" transform="translate(-10.16 -11.31)"/><path class="cls-1" d="M486.58,169.9a23.2,23.2,0,0,1-2.6,7.63,16.13,16.13,0,0,1-4.21,4.84,14.89,14.89,0,0,1-5.4,2.54,25.63,25.63,0,0,1-6.18.73,22.5,22.5,0,0,1-6.79-1,12.89,12.89,0,0,1-8.54-8.21,22,22,0,0,1-1.2-7.72,46,46,0,0,1,.63-7.06,53.32,53.32,0,0,1,2-8.21,46.28,46.28,0,0,1,3.58-8.26,32.48,32.48,0,0,1,5.41-7.25,25,25,0,0,1,7.43-5.15,23.11,23.11,0,0,1,9.72-1.95,16.75,16.75,0,0,1,5.84.86,9.53,9.53,0,0,1,3.59,2.26,7.54,7.54,0,0,1,1.81,3.25,14.66,14.66,0,0,1,.5,3.82,18.69,18.69,0,0,1-2,8.6,22.81,22.81,0,0,1-5.43,6.93,28.12,28.12,0,0,1-7.82,4.79,29,29,0,0,1-9.19,2.13c-.07.58-.13,1.15-.19,1.68s-.07,1.05-.07,1.54a14.84,14.84,0,0,0,.52,4.26,7.3,7.3,0,0,0,1.4,2.73,4.79,4.79,0,0,0,2.08,1.42,7.73,7.73,0,0,0,2.59.42,12.22,12.22,0,0,0,3.25-.47,20.94,20.94,0,0,0,3.33-1.24,27.31,27.31,0,0,0,3.19-1.8A21,21,0,0,0,486.58,169.9Zm-18.19-11.49a13,13,0,0,0,5.87-1.63,18.75,18.75,0,0,0,5-3.95,19.25,19.25,0,0,0,3.43-5.54,17,17,0,0,0,1.27-6.44,7.43,7.43,0,0,0-.57-3.17,2.09,2.09,0,0,0-2.08-1.19,5.61,5.61,0,0,0-4,2,22.14,22.14,0,0,0-3.63,5.17,51.46,51.46,0,0,0-3.07,7.06A65.37,65.37,0,0,0,468.39,158.41Z" transform="translate(-10.16 -11.31)"/><path class="cls-1" d="M193.33,104.37c-3.77-.23-7.53-.67-11.27-1.06s-7.48-.79-11.22-1.12c-7.48-.65-15-1.13-22.42-1.25a186.68,186.68,0,0,0-44.22,3.9,113.92,113.92,0,0,0-40.26,17,95.8,95.8,0,0,0-16.47,14.39c-5,5.56-9.73,11.4-14.59,17.12L30,151.15C34.43,145,39,139,43.72,133.06a96,96,0,0,1,16.94-15.85A100.64,100.64,0,0,1,80.89,105.9,121.3,121.3,0,0,1,103,99.16a163.28,163.28,0,0,1,45.65-2.41c1.89.13,3.78.31,5.67.52s3.77.43,5.65.68,3.75.53,5.63.79,3.73.61,5.59,1C178.63,101,186,102.78,193.33,104.37Z" transform="translate(-10.16 -11.31)"/><path class="cls-1" d="M10.16,181.53c5-17.48,8.78-40.9,7.32-58.23l16.91,25.2,29.1,8.56C46.53,160.86,25.33,171.53,10.16,181.53Z" transform="translate(-10.16 -11.31)"/></svg>