<svg xmlns="http://www.w3.org/2000/svg" viewBox="0 0 232.08 304.65"><title>virama-x</title><g id="Layer_2" data-name="Layer 2"><g id="Layer_1-2" data-name="Layer 1"><g id="virama-x"><path d="M232.08,116.23a55.93,55.93,0,0,1-.36,7.75h-46.5a54.43,54.43,0,0,0,.37-7.75A69.61,69.61,0,0,0,146.48,53.5a65.19,65.19,0,0,1,.37,8.49c0,27.3-12.18,42.43-19.55,51.28a8.07,8.07,0,0,0-1.48,1.85A8.22,8.22,0,0,1,127.3,117c10.33,11.81,27.3,31.37,27.3,68.63,0,17-3.69,32.84-11.44,46.49H85.23c12.92-9.22,23.25-29.51,23.25-46.49,0-19.92-7.75-28.78-15.87-38.37-7-7.38-15.13-17-15.13-31,0-15.5,8.49-25.83,14-32.84,5.9-6.64,9.22-10.7,9.22-21.4a18.23,18.23,0,0,0-4.8-12.55C67.52,58.3,46.49,84.86,46.49,116.23c0,2.58.37,5.16.37,7.75H.37c0-2.59-.37-5.17-.37-7.75A116.21,116.21,0,0,1,116.23,0C180.06,0,232.08,52,232.08,116.23Z"/><polygon points="121.67 285.5 121.39 304.46 108.77 304.65 109.05 285.69 90.09 285.98 90.28 273.35 109.23 273.07 109.52 254.11 122.14 253.93 121.86 272.88 140.81 272.6 140.63 285.22 121.67 285.5"/></g></g></g></svg>