<svg xmlns="http://www.w3.org/2000/svg" viewBox="0 0 232.08 294.07" fill="currentColor"><defs><style>.cls-1{fill:currentColor;}</style></defs><title>virama-pamudpod</title><g id="Layer_2" data-name="Layer 2"><g id="Layer_1-2" data-name="Layer 1"><g id="virama-pamudpod"><path class="cls-1" d="M139.47,54.61V160.5a171.23,171.23,0,0,1,46.12-5.9,115.45,115.45,0,0,1,46.49,10v52c-12.17-11.07-28.78-15.5-46.49-15.5-28.78,0-42.8,6.27-59,13.28-18.82,8.49-39.85,17.71-80.07,17.71A115.24,115.24,0,0,1,0,222.49V170.1c12.54,11.07,28.78,15.49,46.49,15.49,21,0,34.68-3,46.49-7.38V72.32a197.64,197.64,0,0,1-46.49,5.16A115.24,115.24,0,0,1,0,67.89V15.5C12.54,26.57,28.78,31,46.49,31c30.26,0,44.65-6.27,61.62-13.65C126.19,9.22,147.22,0,185.59,0a115.45,115.45,0,0,1,46.49,10V62c-12.17-11.07-28.78-15.5-46.49-15.5C164.56,46.49,151.28,49.81,139.47,54.61Zm-14,216.22,14,13.65-9.59,9.59-13.65-14-14,14L93,284.48l14-13.65-14-14,9.23-9.22,14,14,13.65-14,9.59,9.22Z"/></g></g></g></svg>