<svg xmlns="http://www.w3.org/2000/svg" viewBox="0 0 259.4 281.82"><title>virama-krus</title><g id="Layer_2" data-name="Layer 2"><g id="Layer_1-2" data-name="Layer 1"><g id="virama-krus"><path d="M232.08,0V46.49c-15.86,5.9-23.24,16.6-23.24,31v54.24A100.47,100.47,0,0,1,108.48,232.08C65.68,232.08,31,197.4,31,155V77.48H0V31H77.48V154.6a30.94,30.94,0,0,0,31,31,53.7,53.7,0,0,0,53.87-53.87V77.48C162.35,37.64,193,4.06,232.08,0Z"/><path d="M166.82,281.82a93.3,93.3,0,0,1-17.9-1.73l-11.77-2.31,4.61-23.55,11.78,2.31a68.66,68.66,0,0,0,81.86-67.29,68.52,68.52,0,0,0-3.21-20.8L228.56,157l22.87-7.27,3.63,11.43a92.62,92.62,0,0,1-88.24,120.64Z"/></g></g></g></svg>