<svg xmlns="http://www.w3.org/2000/svg" viewBox="0 0 885.25 1006.98"><defs><style>.cls-1,.cls-3,.cls-4{fill:none;stroke:#000;stroke-linecap:round;stroke-linejoin:round;}.cls-1{stroke-width:3px;}.cls-2{font-size:30px;font-family:Poppins-Bold, Poppins;font-weight:700;}.cls-3{stroke-width:2px;}</style></defs><title>map</title><g id="map-map"><path d="M453.44,459.92c0,3.11.22,6.24-.06,9.32s-1.15,5.77-4.49,6.8-5.64-.47-7.6-2.87c-4.39-5.36-6.89-11.79-10-17.85-1.81-3.48-3.6-6.13-8.29-6.12-5.35,0-6.26-4.95-7.31-8.8-2.24-8.19-4-16.51-5.9-24.79-4.88-21.21-9.69-42.43-14.64-63.62-.8-3.41-1.4-6.89,1.3-9.35,3-2.68,6.47-.43,9.34.74,5,2.05,8.64,6.37,13,9.5,3.83,2.74,7.54,6.18,12.85,3.65,5.58-2.66,6.6-7.71,6.24-13.11a74.06,74.06,0,0,0-1.8-11.65c-2.82-12.47-4.2-24.91-.75-37.51,3.67-13.36,3.2-27.19,3.4-40.79a168.19,168.19,0,0,1,6.86-44.66c1.67-5.78,3.13-11.61,4.63-17.43,4.27-16.65,16.7-24.57,33.88-22.2,11.62,1.6,21.57,7,31.6,12.42,7.47,4.06,15,7.94,23.41,9.88,9.1,2.1,14,.16,18.95-7.58,2.26-3.53,4.72-8,9.55-6s7,6.37,6.07,12.28a107.39,107.39,0,0,1-6.36,22.7c-6,15.47-4.55,30.41,6,42.74,14.12,16.45,15.86,33.05,6.38,52.1-4,8.1-6.35,17.08-9.17,25.75C566.91,344.7,560.3,352.21,548,353.7a32.29,32.29,0,0,0-8.89,2.71c-7.2,3.15-12.51,8.1-13.84,16.29-1.9,11.78-5.37,22.79-12.62,32.67-4.73,6.45-1.11,13.21,2.33,19.18,4.63,8.07,10.93,15.11,14.43,23.92,1.41,3.56,1.69,6.7-.36,10-2.58,4.2-2.53,8.56-.83,13.13,2.74,7.38,4.11,15.31,7.94,22.22,5.47,9.88,13.78,15.88,25.49,16,7.87.06,9.63-2.21,7.27-9.66-1.22-3.85-.29-6.05,3-8.26,13.2-8.81,27.19-8.52,40.78-2.34,5.83,2.66,8.84,9.64,11.57,15.71,1.45,3.2,2.22,6.7,3.57,10,1.17,2.82,2.37,6.09,6.06,6.23,2.48.1,8.38-7.75,7.77-10.24-.71-2.92-1.85-5.78,1.71-7.53,3.32-1.63,5.48.66,7.54,2.74,2.62,2.62,6,3.64,9.41,4.48,6,1.48,12.12,2.95,17.64,5.9,2.31,1.23,5.07,2.82,4.31,6.09a7.19,7.19,0,0,1-6.3,6c-12.08,1.94-14,6.82-6.91,17.12,1.76,2.54,4.09,4.67,6,7.1,3,3.78,5.87,7.71,4.32,13-1,3.44.52,4.78,3.65,4.57,6.83-.45,11.79,4.84,18.19,5.76,1.9.27,2.07,2.43,2,4.12-.24,7.46-.43,15-2.49,22.17-1.15,4-3,7.8-8.41,7.46-6-.38-6.63-4.59-6.95-9.15-.28-4.12,1.79-8.92-.48-12.2-2.45-3.55-7.67-.67-11.58-2.07-4.65-1.68-9.76-1.87-14.35-4-8-3.65-14.31-8.66-17.19-17.6-3.62-11.23-10.3-20.2-21.35-25.48a38.3,38.3,0,0,1-16-14.39,35.81,35.81,0,0,0-4.63-5.84c-2.07-2.11-3.94-5.29-7.76-3.1s-5,4.91-3.54,9.33c3.07,9.25,5.56,18.68,8.48,28,1,3.11,1,5.4-2,7.55-3.33,2.38-6.15,2.29-7.39-1.55-6.32-19.58-24.05-28.4-38.19-40.45-9.36-8-23.54-10.28-34.18,3.95-3.06,4.08-6.09,8.49-12.24,9.82-7.46,1.61-12.89-1.54-18.47-5.1-3.13-2-5.82-4.76-9-6.59-5.07-2.89-10.16-7.07-16.24-1.53-2.13,1.94-3.82,1-4.18-1.86-.71-5.75-1.93-11.5-2-17.26A20.12,20.12,0,0,1,461.44,484c5.35-4.16,10.4-8.59,12.75-15.62,1.89-5.64.4-9.36-4.11-12.19s-9.63-4.79-13.62-8.6c-2.19-2.1-3.42-.51-3.54,1.77-.19,3.51-.05,7-.05,10.54Z" transform="translate(-106.44 -138.07)"/><path d="M846.22,1055.11a52.86,52.86,0,0,1-9-19.66c-3.61-14.46-6.61-29.1-14.44-42.16-4.6-7.67-6.15-8.23-11.94-1.25a101.25,101.25,0,0,0-16.08,27.9c-1.83,4.67-.8,9.67,1.92,14.3,4.8,8.15,10.26,15.84,12.31,25.57,3.31,15.68-2.75,35.62-18.08,44.88-3.32,2-5,1.78-6.87-1.47-3.74-6.39-3.61-13.47-4.07-20.47-.17-2.63.62-6-2.12-7.32-2.9-1.35-4.87,1.61-6.67,3.49-6.84,7.16-14.3,8.61-24.2,6-31.22-8.32-46.87-30.12-53.45-59.81-1.58-7.13.64-14.81,3.07-21.92.74-2.16,1.71-4.23,2.62-6.32,6.62-15.26,4.39-25-8.81-34.7A80.59,80.59,0,0,0,669.2,950.6c-6.5-2.25-10.35-.68-12.69,5.9a115.27,115.27,0,0,0-4.83,17.34c-1,5.51-3.35,5.2-7.18,2.88-6.49-3.94-12.07-8.73-15-15.9-2.58.55-3,2.63-4,4.08-4.14,6.28-8.26,6.82-13.77,1.53a40.64,40.64,0,0,1-4.1-4.68c-7.89-10.33-14.83-7.79-21.73,1.41-6.2,8.28-9,18.16-13.07,27.43-2.58,5.88-5,11.83-7.84,17.6-1.68,3.47-4.31,6.21-8.7,5.82s-7.14-3.09-8.85-6.91a21.22,21.22,0,0,1,1.36-20.3c5.68-9.59,8.87-19.88,11.3-30.72,3.57-16,15.46-23.13,30.75-25.65,3.68-.61,7.34-1.34,11-2,9.63-1.63,16.69-6.57,21.31-15.36,5.3-10.09,13.66-17.09,24-21.67,13.2-5.83,27.15-.63,33.5,12.35,4.28,8.75,5.59,16.31-.64,25.61,11.44.82,26.83-9,30.52-19.43.76-2.15,1.51-4.31,2.28-6.45,2.83-7.86,9.36-12,17.09-9.19,8.31,3,12.1.78,15.61-9.63a26,26,0,0,0,.81-6.14c.78-9.48,5.58-12.21,14.1-8,7,3.44,11.76,2,15.19-4.73,1.64-3.22,4.15-2.81,6.9-2.16,10.21,2.42,16.88-3.76,15.4-14.46a56.82,56.82,0,0,0-2.55-11.52c-2.61-7.19-.56-13.85,1.39-20.64,1.06-3.69,3-3.85,6-2,5.81,3.62,11.73,7,16.7,11.84,6.84,6.65,13.79,13.19,23.1,16.42,2.64.91,5.06,2.47,4.93,5.69-.22,5.73,2.55,10.34,5.09,15.09,5.19,9.68,4.46,15-3,22.93-6,6.36-5.71,9,2.21,12.12,11.82,4.68,11.08,15.89,13.37,25.34,1,4.12.38,8.69.1,13-.52,8.14,1.54,15.47,5.36,22.64,9.67,18.14,4.16,41-13.32,52-7.81,4.94-10.36,10.85-9.85,19.54C847.9,1039.41,848.58,1047.27,846.22,1055.11Z" transform="translate(-106.44 -138.07)"/><path d="M799,650.17c-2.74,11.73-.61,26.51,4.76,41a7.7,7.7,0,0,1,.6,3c-.43,6.87.89,12.79,7.72,16.3,1.12.57,1.79,2.25,2.4,3.55,1.19,2.51.41,3.52-2.39,2.81-1.8-.45-3.7-1.26-5.44-1-16.58,2.1-29-6-40.81-16.07-7.33-6.25-9.37-12.31-6.15-21.41,1.92-5.4,1.43-7.67-4.28-11.92-14.79-11-29.78-22.58-38.59-39.65-2.45-4.76-5.6-11-2.91-15.22,2.38-3.76,8.74-.33,13.35,0,11,.74,21.94.59,32.78-1.68,10.41-2.17,20.56-.78,23.83,11.55.76,2.85,3.18,4.92,5.85,6.19C797.87,631.45,799.88,638.34,799,650.17Z" transform="translate(-106.44 -138.07)"/><path d="M643.87,722.51c10.7.79,20.73,10.68,17,21.81a81.51,81.51,0,0,1-7.13,15.1c-6.85,11.67-11.81,24.16-16.32,36.84-4.37,12.29-4.06,24,2.78,35.73,6.6,11.32,4.76,19.33-4.31,27-5.7,4.84-10.2,4.5-14.29-2.07-6.25-10-13.49-18.85-24.47-23.9-4.41-2-8-5.1-11.47-8.38-10.56-10-7.2-25,6.44-29.66,5.19-1.78,10.91-2.23,15.21-6.45,7-6.83,4.81-14.72,3.33-22.69-3.23-17.3,12.59-40,29.89-43C641.7,722.72,642.94,722.62,643.87,722.51Z" transform="translate(-106.44 -138.07)"/><path d="M546.86,753.33q3.64-21.09,7.3-42.19c1.35-7.75,2.86-15.47,4.11-23.24,1.48-9.16.36-11.65-7.64-16.18-3.7-2.09-4.72-4.6-3.66-8.69,1.27-4.92,4.84-3.3,7.48-2.71a70,70,0,0,1,29.64,14.93c3.67,3.06,7.3,4.39,11.9,3.87,4.77-.55,9.54-.56,14.12,1.15,1.52.58,3.93,1.28,4.19,2.35,1.94,7.91,6.82,4.88,11.75,3.9,6.25-1.25,8.78,1.87,7.51,8.27A38.43,38.43,0,0,1,619.06,718c-6.18,4.89-12.24,9.71-16,17-2.47,4.77-7.64,6.84-12.42,8.9-12.91,5.56-26.63,9.31-38.4,17.41-2.73,1.88-4.24.75-4.53-2.32-.18-1.85-.2-3.72-.29-5.58Z" transform="translate(-106.44 -138.07)"/><path d="M216.74,909.94c1.63-8.27,2.62-16.35,7.66-23.36,12.22-17,29.37-28.61,45.64-40.93,19.09-14.47,33.73-33,49.52-50.47,10.18-11.27,20.71-22,32.51-31.55,7.45-6,11.14-13.2,8.37-22.85-1.82-6.35-.68-12.2,2.57-17.91,3.38-5.94,6.3-12.14,9.55-18.16,1-1.78,2.17-4,4.63-3.38,2.15.52,2.38,3,2.34,4.67-.42,17.13,5.23,33,9.79,49.16,1.27,4.46-1.4,6.76-4.25,8.71a35.57,35.57,0,0,1-8.93,4.25A31.87,31.87,0,0,0,359.07,781a37.55,37.55,0,0,1-18.55,15c-9.57,3.5-14.85,10.58-18.72,19.53-4.17,9.66-8,19.57-15.95,27.13a55.5,55.5,0,0,1-12.22,8.46,56.66,56.66,0,0,0-21.79,19.88,42.64,42.64,0,0,1-14.29,13.56C244,892.84,230.05,900.53,216.74,909.94Z" transform="translate(-106.44 -138.07)"/><path d="M449.45,541c12.87.56,23.83,3.58,34.59,7.44,3.31,1.19,6.41,2.66,10,.49,2.54-1.51,5,.11,6.53,2.13,3.74,4.81,8.54,8.49,13.09,12.36,5.54,4.71,6.91,10.57,6.29,17.25-.68,7.24-1.32,14.47.13,21.67.58,2.92-.58,5.3-1.92,7.64-3.1,5.41-6.26,10.79-7.44,17-.51,2.72-2.4,3.37-4.77,4.09-15,4.58-23.53-3.77-28.79-15.75-5.09-11.56-9.24-23.54-14-35.27-5-12.29-12.88-22.17-24.71-28.5-3-1.58-3-2.81-.81-5C441.36,542.94,445,539.59,449.45,541Z" transform="translate(-106.44 -138.07)"/><path d="M763.25,771.77c.63,6.55,1.11,11.46,1.56,16.37.11,1.17.73,2.57-.74,3.3-1.1.55-1.9-.43-2.76-.94q-18.66-11.1-16.72-32.72c.41-4.53,1-9,1.58-13.56,1.28-10.61-4.23-17.31-14.93-17.4-4.62,0-7.09-1.91-9.21-5.78-5.46-10-6.83-20.68-6.83-31.77,0-4,1.17-5,4.65-2.56,4.59,3.18,8.76,7,13.91,9.32s10.13,4.12,15.69.05c4.36-3.19,8.38-1.39,11.34,3.42,5,8.15,5.49,17.26,5.75,26.35A43.44,43.44,0,0,0,773,747.59c3.67,6,5.59,12.85,8.12,19.41,3,7.79-3,9.91-7.23,12.66-3.88,2.54-4.45-2.83-6.73-4.33A41.29,41.29,0,0,1,763.25,771.77Z" transform="translate(-106.44 -138.07)"/><path d="M644.53,823.59c-.67-10.76,2.87-20.76,8.11-29.54,13.69-22.93,23.93-47.24,32.07-72.55,1.79-5.59,4.94-10.49,8-15.38.5-.8,1.44-1.82,2.21-1.85,1.5-.07,1.69,1.52,2,2.66a4.18,4.18,0,0,1,.18,1.85c-2.68,16,.35,32.36-2.62,48.31a36.86,36.86,0,0,1-10.49,19.46c-11.48,11.07-17.38,25-23.09,39.26A47.37,47.37,0,0,1,649,833c-.88.82-1.69,2.17-3,1.76-1.8-.55-1.37-2.36-1.42-3.73C644.45,828.57,644.53,826.08,644.53,823.59Z" transform="translate(-106.44 -138.07)"/><path d="M712.7,783.76c11.52-2,22.59,11.59,19.33,23.75-1.68,6.25-7.19,10.55-12.8,12.63-8.86,3.29-18.22,4.81-28,2.23a14.36,14.36,0,0,1-10.62-10.19c-1.47-4.8,1.05-9.3,5-12.56,5.74-4.75,11.56-9.39,17.32-14.11C705.83,783.15,709.24,784,712.7,783.76Z" transform="translate(-106.44 -138.07)"/><path d="M633.46,656.7c-.66-7.47,1.55-13.79,2.46-20.22,1-7.37,2.78-14.64,2.29-22.17-.3-4.64,1.76-5.37,5.65-3.5,17.07,8.21,33.62,17.13,45.61,32.45,5.06,6.46,5.48,14.56,7.49,22.09a2.38,2.38,0,0,1-1.52,3c-1.63.4-2.52-1.13-3.56-2.07a265.83,265.83,0,0,0-31-23.83c-5.36-3.55-9.6-2.58-13.57,2.06A67.27,67.27,0,0,1,633.46,656.7Z" transform="translate(-106.44 -138.07)"/><path d="M709.76,540.14c-11.91.15-15.78-5.62-11.63-13.89,2.75-5.48,3.08-11.55,4.92-17.23.82-2.53,1.32-5.4,4.56-6.07s4.08,2.26,5.63,4c2.06,2.31,3.93,4.79,5.88,7.2,5.19,6.41,2.51,12.78,0,19.26C717,539.14,712.45,540.16,709.76,540.14Z" transform="translate(-106.44 -138.07)"/><path d="M554,1049.34c-5-.09-15-9.16-15.26-13.82-.08-1.47.95-2.16,1.85-3,8.2-7.7,24.73-7.11,32.46,1.16.87.93,2.07,2.12.85,3.14C567.78,1041.85,563,1049,554,1049.34Z" transform="translate(-106.44 -138.07)"/><path d="M421.41,651.15c-9.48,0-15.85-4.81-18.89-13.82a5.93,5.93,0,0,1,1.43-6.26c1.7-1.91,3.44-.43,5,.41,2.56,1.36,5,2.88,7.55,4.3a7.33,7.33,0,0,0,5.27,1.25c2.21-.43,4.55-3.29,6.73-.49a18,18,0,0,1,3.38,9.23C432.2,648.67,427,651.18,421.41,651.15Z" transform="translate(-106.44 -138.07)"/><path d="M812.85,788c-.39,3.13-.79,6.82-1.31,10.5-.17,1.2-.47,2.68-1.83,3s-2.08-1.09-2.82-2.06c-2.62-3.45-5.3-6.86-7.83-10.37-4.36-6-.41-11.52,1.66-16.86,1.45-3.73,4-8.77,8.14-8.19,3.39.47,1.95,6,2.58,9.3C812.35,777.9,812.39,782.7,812.85,788Z" transform="translate(-106.44 -138.07)"/><path d="M560.89,551.54c-.06,3.93-6.14,10.91-9.48,10.87-5.68-.06-12.11-6.8-11.23-13.11.53-3.8-1.65-10.18,5.17-10.8C552.93,537.82,561,545,560.89,551.54Z" transform="translate(-106.44 -138.07)"/><path d="M495,1085.65c-6.65-.47-12.42-.43-18-2.21-4.15-1.31-4-3.2-1.83-6.23s5-4.7,8.42-4.34a123.68,123.68,0,0,1,22.48,4c2,.6,4.49,1.21,4.48,3.59,0,2.59-2.63,3.81-4.74,4.2A98.3,98.3,0,0,1,495,1085.65Z" transform="translate(-106.44 -138.07)"/><path d="M552.86,642.86c-3.49-9.1-5.72-18-3.76-27.79,1.25-6.26,5.66-8.16,10.41-10.21,2.1-.91,3.4-.13,3,2.16C560.41,619.2,557.84,631.28,552.86,642.86Z" transform="translate(-106.44 -138.07)"/><path d="M540.34,439.26c.43-3.89,2-7.31,6-8.46,3.63-1.05,6.25,1.17,8.32,4,.77,1.06,1.43,2.36.54,3.39-3.74,4.32-2.12,9.42-2.2,14.22-.06,3.47-1.55,5.66-4.86,6-4.22.45-2.78-3.16-3.06-5.21C544.37,448.23,540.18,444.51,540.34,439.26Z" transform="translate(-106.44 -138.07)"/><path d="M424,1125.39c3.08-.37,5,1.17,5.3,4,.33,3-1.53,6.12-4.31,5.72-6.16-.88-9.26,3.54-13.54,6.11-3.58,2.15-8.51,6.16-11.44,2.19-2.23-3,3.27-6.27,6.15-8.68C411.4,1130.32,417,1126.45,424,1125.39Z" transform="translate(-106.44 -138.07)"/><path d="M588.72,757.67a20.11,20.11,0,0,1,5.8-12.28c1.47-1.46,3.31-3.71,5.84-2.18a6.71,6.71,0,0,1,3.49,7.31,17.57,17.57,0,0,1-8.24,11.81C590.91,765.32,588.83,764.12,588.72,757.67Z" transform="translate(-106.44 -138.07)"/><path d="M406.11,653.35a11.74,11.74,0,0,1,9.9,7.39c2.06,4.57.9,8.92-1.31,13-1.23,2.27-2.91.77-4-.36-4.61-4.72-6.31-11-8.6-16.91C400.92,653.44,404.41,654,406.11,653.35Z" transform="translate(-106.44 -138.07)"/><path d="M723.93,672.78c5.86.63,9.65,3.64,11.76,8.5,1.7,3.93-2.57,8.06-7.25,6.91-5.54-1.34-8.91-5.53-10.24-10.65C716.93,672.66,721.84,673.9,723.93,672.78Z" transform="translate(-106.44 -138.07)"/><path d="M593.09,629.34c-5-.16-11.19-5.21-11-9.19.21-3.66,2.46-5.44,6.18-5.28,5,.21,11.54,5.09,11.59,8.66C600,626.31,596.27,629.44,593.09,629.34Z" transform="translate(-106.44 -138.07)"/><path d="M832.22,802.43a12.14,12.14,0,0,1,.43-3.57c1.28-2.93,1.89-7.44,5.23-7.63,2.85-.16,2.89,4.36,4,6.86.68,1.5,1.13,3.09,1.76,4.61,1.41,3.4,2.88,6.9-2.32,8.3-4.68,1.27-7.45-1.1-8.8-5.43A16.15,16.15,0,0,1,832.22,802.43Z" transform="translate(-106.44 -138.07)"/><path d="M646.82,600.45c-8.53-7.14-16.93-14-25.06-21.15-1.48-1.3-3.79-3.94-2-5.87,2.19-2.33,4.51.08,6.38,1.68a125.63,125.63,0,0,1,19.08,20.37C646.16,596.71,647.74,597.78,646.82,600.45Z" transform="translate(-106.44 -138.07)"/><path d="M403.41,748.88c3.14,1,7.21.9,8.18,5.08.6,2.59-7.09,7.69-10.9,7.65s-5.94-2.65-5.71-5.87C395.31,751.14,399.23,749.7,403.41,748.88Z" transform="translate(-106.44 -138.07)"/></g><g id="map-m1"><path class="cls-1" d="M257,157.64" transform="translate(-106.44 -138.07)"/><path class="cls-1" d="M256.72,157.44a12.48,12.48,0,0,1,9.52-4.72,2.07,2.07,0,0,1,1.32.3,2.27,2.27,0,0,1,.59,2,30.21,30.21,0,0,1-3.2,12c-.74,1.46-1.62,2.95-1.62,4.59s1.32,3.42,2.94,3.18a4,4,0,0,0,2.47-2c3.18-4.69,5.25-10,7.92-15s6.12-9.86,11.12-12.54c3.65-2,7.84-2.62,12-3.15" transform="translate(-106.44 -138.07)"/><path class="cls-1" d="M287.58,139.57l-10.91,5.09" transform="translate(-106.44 -138.07)"/><path class="cls-1" d="M289.2,159.6c-5.59,1.56-10.78,4.27-15.92,7" transform="translate(-106.44 -138.07)"/><path class="cls-1" d="M287.68,166.12a30.53,30.53,0,0,0-11.32,5.18" transform="translate(-106.44 -138.07)"/><path class="cls-1" d="M258.83,178.65l24.57,2.16a7.1,7.1,0,0,0,3.15-.2,2.42,2.42,0,0,0,1.67-2.43c-.18-1.17-1.43-1.83-2.56-2.18-2.81-.88-6.13-.94-8.45.88s-3,5.06-4,7.92a33.85,33.85,0,0,1-7.53,12.74" transform="translate(-106.44 -138.07)"/><path class="cls-1" d="M286.22,186.79a45.61,45.61,0,0,1-10.46,3.67" transform="translate(-106.44 -138.07)"/><path class="cls-1" d="M273.8,205.17l7.61,0c0-2.14,1-4.74,3.17-4.85a3.35,3.35,0,0,1,3.15,2.62,7.34,7.34,0,0,1-.46,4.35c-1.38,3.85-4,7.62-3.24,11.64a3.24,3.24,0,0,0,4,.65,8.52,8.52,0,0,0,3-3,56.5,56.5,0,0,0,8.72-20.9,11.63,11.63,0,0,0,.28-2.88c-.26-4.18-4.35-6.91-8-9" transform="translate(-106.44 -138.07)"/><path class="cls-1" d="M288.68,193.53a35.46,35.46,0,0,0-11.16,2.14,11.55,11.55,0,0,0-3.8,2,14.91,14.91,0,0,0-3,4.35,159.13,159.13,0,0,1-12,19.11c-.71,1-1.63,2-2.83,1.94a2.48,2.48,0,0,1-2.05-2.32,7.35,7.35,0,0,1,.69-3.27l4-10.51c.39-1,.74-2.27.05-3.12a2.49,2.49,0,0,0-1.86-.73c-2.87-.12-5.36,1.84-7.56,3.7-.18.15-.38.39-.27.6s.48-.17.25-.19" transform="translate(-106.44 -138.07)"/><path class="cls-1" d="M279.53,210.74a134.25,134.25,0,0,1-15.34,1.94" transform="translate(-106.44 -138.07)"/><path class="cls-1" d="M251.88,230.91a39.88,39.88,0,0,1,19.36-4.25c1.85.07,4.13.62,4.54,2.43a4.06,4.06,0,0,1-.9,3,18.26,18.26,0,0,1-6.84,6.1l6.79-2.54a4.08,4.08,0,0,1,2-.37,2.71,2.71,0,0,1,2,2.75,7.92,7.92,0,0,1-1.14,3.46l-3.92,7.68c-1.15,2.25-2.26,5.13-.7,7.12,1.2,1.53,3.55,1.72,5.34.94a13,13,0,0,0,4.38-3.77c3.36-4,6.68-8.29,7.73-13.39s-.88-11.18-5.63-13.32" transform="translate(-106.44 -138.07)"/><path class="cls-1" d="M266.71,227.8a65.23,65.23,0,0,0-10.82,24" transform="translate(-106.44 -138.07)"/><text class="cls-2" transform="translate(108 149.97)">Kulitan</text></g><g id="map-m2"><path class="cls-1" d="M117.78,417c3.62.29,7.25.41,10.87.35a9.22,9.22,0,0,1,.7,6.26c-.48,2-1.58,3.7-2.26,5.59a13.54,13.54,0,0,0-.55,7.08c.42,2.18,2,4.61,4.17,4.37,1.48-.17,2.52-1.48,3.39-2.69a368.78,368.78,0,0,0,20.65-32.48l0,1.25" transform="translate(-106.44 -138.07)"/><path class="cls-1" d="M143.89,423.67A44.26,44.26,0,0,0,155.54,441" transform="translate(-106.44 -138.07)"/><path class="cls-1" d="M164.84,417.8a140,140,0,0,1-3.92,22.35,83.33,83.33,0,0,1,17.59-19.45c4.17-3.36,8.78-6.44,11.6-11q-4.55,12.87-9.1,25.72a41,41,0,0,1,9.65-.14,36.09,36.09,0,0,0-2.58,9.84" transform="translate(-106.44 -138.07)"/><path class="cls-1" d="M192.67,417.35c1.65.27,3.33-.19,5-.23s3.59.53,4.24,2.07c.57,1.35,0,2.87-.57,4.24a38.57,38.57,0,0,0-2.56,11.91c-.13,2.4.44,5.44,2.77,6s4.22-1.78,5.47-3.82A276.7,276.7,0,0,1,229,406.61" transform="translate(-106.44 -138.07)"/><path class="cls-1" d="M215.4,426.3A69.29,69.29,0,0,1,225.11,441" transform="translate(-106.44 -138.07)"/><path class="cls-1" d="M231.54,417.12a90.69,90.69,0,0,0,11.54.16" transform="translate(-106.44 -138.07)"/><path class="cls-1" d="M232.17,440.89q4.38-12.33,9.91-24.19c1.82,2.74,4.11,5.77,7.4,5.95,2.55.13,4.81-1.55,6.7-3.26a59.6,59.6,0,0,0,6.43-6.77,292,292,0,0,0-12.24,28.26" transform="translate(-106.44 -138.07)"/><line class="cls-1" x1="30.06" y1="267.43" x2="43.06" y2="267.43"/><line class="cls-1" x1="67.06" y1="267.43" x2="79.06" y2="267.43"/><line class="cls-1" x1="104.06" y1="267.43" x2="114.06" y2="267.43"/><line class="cls-1" x1="135.06" y1="308.43" x2="147.06" y2="308.43"/><text class="cls-2" transform="translate(12 339.97)">Haninu’o</text></g><g id="map-m3"><polyline class="cls-1" points="12.06 442.43 26.06 442.43 13.06 463.43 28.06 463.43 46.06 435.43 56.06 435.43"/><polyline class="cls-1" points="52.06 442.43 39.06 463.43 62.06 463.43 80.06 435.43 68.06 435.43 46.06 470.43"/><polyline class="cls-1" points="84.06 442.43 97.06 442.43 84.06 463.43 99.06 463.43 117.06 435.43 128.06 435.43"/><line class="cls-1" x1="120.06" y1="441.43" x2="144.06" y2="441.43"/><line class="cls-1" x1="117.06" y1="463.43" x2="131.88" y2="441.43"/><line class="cls-1" x1="31.06" y1="430.43" x2="49.06" y2="430.43"/><line class="cls-1" x1="65.06" y1="430.43" x2="80.06" y2="430.43"/><line class="cls-1" x1="103.06" y1="430.43" x2="120.06" y2="430.43"/><line class="cls-1" x1="112.06" y1="470.43" x2="131.06" y2="470.43"/><text class="cls-2" transform="translate(29 500.97)">Buhid</text></g><g id="map-m4"><path class="cls-1" d="M124.62,778.53c2.33-.18,4.87.34,6.43,2.08s1.8,4.4,1.92,6.8l.66,13.74a3.61,3.61,0,0,0,.68,2.36,2.49,2.49,0,0,0,3.27,0,7.26,7.26,0,0,0,1.91-3l10.94-25.82a4.58,4.58,0,0,1,1.36-2.07,4.36,4.36,0,0,1,2-.66,38.25,38.25,0,0,1,7.56-.36" transform="translate(-106.44 -138.07)"/><path class="cls-1" d="M146.58,784.16c.57,1.67,2.13,2.77,3.53,3.85a42.21,42.21,0,0,1,7.17,7" transform="translate(-106.44 -138.07)"/><path class="cls-1" d="M156.62,778.53c2.33-.18,4.87.34,6.43,2.08s1.8,4.4,1.92,6.8l.66,13.74a3.61,3.61,0,0,0,.68,2.36,2.49,2.49,0,0,0,3.27,0,7.26,7.26,0,0,0,1.91-3l10.94-25.82a4.58,4.58,0,0,1,1.36-2.07,4.36,4.36,0,0,1,2-.66,38.25,38.25,0,0,1,7.56-.36" transform="translate(-106.44 -138.07)"/><path class="cls-1" d="M188.62,778.53c2.33-.18,4.87.34,6.43,2.08s1.8,4.4,1.92,6.8l.66,13.74a3.61,3.61,0,0,0,.68,2.36,2.49,2.49,0,0,0,3.27,0,7.26,7.26,0,0,0,1.91-3l10.94-25.82a4.58,4.58,0,0,1,1.36-2.07,4.36,4.36,0,0,1,2-.66,38.25,38.25,0,0,1,7.56-.36" transform="translate(-106.44 -138.07)"/><path class="cls-1" d="M210.58,784.16c.57,1.67,2.13,2.77,3.53,3.85a42.21,42.21,0,0,1,7.17,7" transform="translate(-106.44 -138.07)"/><path class="cls-1" d="M178.22,785l4.34,2.12c.25.12.53.27.61.53a1,1,0,0,1-.28.88L180.5,792c.33.86,1.58.6,2.44.28s2.24-.16,2.15.75a1.51,1.51,0,0,1-.32.66l-3.13,4.41a34.15,34.15,0,0,0,7.66-1.12l-2.75,3.26c-.49.59-1,1.43-.55,2a1.79,1.79,0,0,0,.84.52l4,1.53" transform="translate(-106.44 -138.07)"/><path class="cls-1" d="M224.68,778.91c2.38-1.14,3.61-3.81,5.67-5.48,3.06-2.5,7.63-2.38,11.21-.72s6.38,4.62,9,7.59" transform="translate(-106.44 -138.07)"/><line class="cls-1" x1="131.06" y1="634.43" x2="131.06" y2="667.43"/><polyline class="cls-1" points="35.06 625.42 40.06 631.42 35.06 634.42"/><polyline class="cls-1" points="67.06 625.42 72.06 631.42 67.06 634.42"/><polyline class="cls-1" points="99.06 625.42 104.06 631.42 99.06 634.42"/><polyline class="cls-1" points="136.06 664.42 141.06 670.42 136.06 673.42"/><text class="cls-2" transform="translate(0 701.97)">Tagbanwa</text></g><g id="map-m5"><path d="M161.72,966.88c-3.1,5.24-6.52,11.89-4.61,18.15,1.62,5.27,6.6,8.08,11.74,9,5.3,1,11.4.37,15.34-3.68,4.29-4.41,4.47-11.25,4.48-17,0-2-2.84-1.9-3,0-.82,10.23,7.6,19.8,18.18,18.63,8.34-.92,19.17-10.73,13.76-19.8-5-8.44-16.23-.28-14.88,7.67,1.69,9.91,15.77,17,23.77,9.75,5.23-4.76,5.78-12.08,5.84-18.7.09-10.2,0-20.39.08-30.59a1.5,1.5,0,0,0-3,0L229.18,966c-.05,5.46-.91,11.93,1.69,17,4.42,8.6,16.29,10.49,23,3.48,5-5.2,6.47-20.16-4.16-19.38a9.28,9.28,0,0,0-8.07,7.34c-1,5,2.08,9.62,5.69,12.72,1.45,1.26,3.58-.86,2.12-2.12-3.2-2.75-6.67-7.5-4.16-11.89,2.16-3.75,7.22-4.27,9.24.51a9.57,9.57,0,0,1,0,6A11.25,11.25,0,0,1,236.32,985c-5.82-5-4.18-14.17-4.12-21l.22-23.65h-3c0,10.5.12,21-.09,31.5-.1,5.48-.47,11.79-5,15.66-5.1,4.4-12.48,1.39-16.29-3.21-2.41-2.92-3.76-7.18-.93-10.37s8.19-2.27,8.64,2.57-3.54,9.32-7.69,11.26c-10.09,4.7-20.29-3.82-19.44-14.37h-3c0,4.33,0,9.17-2.23,13-2.83,4.8-8.71,5.64-13.8,4.76s-9.69-3.77-10-9.31c-.3-4.8,2.35-9.47,4.71-13.45a1.5,1.5,0,0,0-2.59-1.52Z" transform="translate(-106.44 -138.07)"/><path d="M170,975.52V976a2.5,2.5,0,0,0,5,0v-.48a2.5,2.5,0,0,0-5,0Z" transform="translate(-106.44 -138.07)"/><path d="M205.16,963.62c3.22,0,3.22-5,0-5s-3.22,5,0,5Z" transform="translate(-106.44 -138.07)"/><path d="M210,955.46c3.22,0,3.22-5,0-5s-3.22,5,0,5Z" transform="translate(-106.44 -138.07)"/><path d="M215.72,964.1c3.22,0,3.22-5,0-5s-3.22,5,0,5Z" transform="translate(-106.44 -138.07)"/><path d="M244.52,965.06c3.22,0,3.22-5,0-5s-3.22,5,0,5Z" transform="translate(-106.44 -138.07)"/><path d="M247.07,954.73l.48.48a2.5,2.5,0,1,0,3.54-3.54l-.48-.48a2.5,2.5,0,0,0-3.54,3.54Z" transform="translate(-106.44 -138.07)"/><path d="M255.56,963.62c3.22,0,3.22-5,0-5s-3.22,5,0,5Z" transform="translate(-106.44 -138.07)"/><path d="M166.73,963.15c3.93-2.36,18.89-10.86,13.27-17.19-1.78-2-4.92-1.43-6.4.64-2,2.79.05,6.15,2.74,7.45,1.73.83,3.25-1.75,1.51-2.59-1.35-.66-1.92-1.06-1.34-2.6.14-1.36.47-1.52,1-.47a.87.87,0,0,1,.24,1.49c-.25,1.64-2.61,3.5-3.8,4.56a56.8,56.8,0,0,1-8.73,6.12,1.5,1.5,0,0,0,1.51,2.59Z" transform="translate(-106.44 -138.07)"/><line class="cls-1" x1="91.06" y1="868.43" x2="112.06" y2="859.43"/><line class="cls-1" x1="114.06" y1="868.43" x2="135.06" y2="859.43"/><line class="cls-1" x1="136.06" y1="868.43" x2="157.06" y2="859.43"/><text class="cls-2" transform="translate(66 898.97)">Jawi</text></g><g id="map-m6"><path d="M844.72,999.88c-3.1,5.24-6.52,11.89-4.61,18.15,1.62,5.27,6.6,8.08,11.74,9,5.3,1,11.4.37,15.34-3.68,4.29-4.41,4.47-11.25,4.48-17,0-2-2.84-1.9-3,0-.82,10.23,7.6,19.8,18.18,18.63,8.34-.92,19.17-10.73,13.76-19.8-5-8.44-16.23-.28-14.88,7.67,1.69,9.91,15.77,17,23.77,9.75,5.23-4.76,5.78-12.08,5.84-18.7.09-10.2,0-20.39.08-30.59a1.5,1.5,0,0,0-3,0L912.18,999c0,5.46-.91,11.93,1.69,17,4.42,8.6,16.29,10.49,23,3.48,5-5.2,6.47-20.16-4.16-19.38a9.28,9.28,0,0,0-8.07,7.34c-1,5,2.08,9.62,5.69,12.72,1.45,1.26,3.58-.86,2.12-2.12-3.2-2.75-6.67-7.5-4.16-11.89,2.16-3.75,7.22-4.27,9.24.51a9.57,9.57,0,0,1,0,6,11.25,11.25,0,0,1-18.17,5.35c-5.82-5-4.18-14.17-4.12-21l.22-23.65h-3c0,10.5.12,21-.09,31.5-.1,5.48-.47,11.79-5,15.66-5.1,4.4-12.48,1.39-16.29-3.21-2.41-2.92-3.76-7.18-.93-10.37s8.19-2.27,8.64,2.57-3.54,9.32-7.69,11.26c-10.09,4.7-20.29-3.82-19.44-14.37h-3c0,4.33,0,9.17-2.23,13-2.83,4.8-8.71,5.64-13.8,4.76s-9.69-3.77-10-9.31c-.3-4.8,2.35-9.47,4.71-13.45a1.5,1.5,0,0,0-2.59-1.52Z" transform="translate(-106.44 -138.07)"/><path d="M853,1008.52v.48a2.5,2.5,0,0,0,5,0v-.48a2.5,2.5,0,0,0-5,0Z" transform="translate(-106.44 -138.07)"/><path d="M893,995.46c3.22,0,3.22-5,0-5s-3.22,5,0,5Z" transform="translate(-106.44 -138.07)"/><path d="M930.07,993.73l.48.48a2.5,2.5,0,0,0,3.54-3.54l-.48-.48a2.5,2.5,0,0,0-3.54,3.54Z" transform="translate(-106.44 -138.07)"/><path d="M849.73,996.15c3.93-2.36,18.89-10.86,13.27-17.19-1.78-2-4.92-1.43-6.4.64-2,2.79,0,6.15,2.74,7.45,1.73.83,3.25-1.75,1.51-2.59-1.35-.66-1.92-1.06-1.34-2.6.14-1.36.47-1.52,1-.47a.87.87,0,0,1,.24,1.49c-.25,1.64-2.61,3.5-3.8,4.56a56.8,56.8,0,0,1-8.73,6.12,1.5,1.5,0,0,0,1.51,2.59Z" transform="translate(-106.44 -138.07)"/><line class="cls-1" x1="774.06" y1="901.43" x2="795.06" y2="892.43"/><line class="cls-1" x1="797.06" y1="901.43" x2="818.06" y2="892.43"/><line class="cls-1" x1="819.06" y1="901.43" x2="840.06" y2="892.43"/><text class="cls-2" transform="translate(748 934.97)">Kirim</text></g><g id="map-m7"><path class="cls-1" d="M833.17,750.52a9.92,9.92,0,0,1,4.31-4.51,5,5,0,0,1,5.81,1c1.16,1.42,1.15,3.44,1.08,5.28L844,763.25c-.09,2.21.06,4.86,2,6a4.1,4.1,0,0,0,4.17-.32,9.93,9.93,0,0,0,2.88-3.29,37.42,37.42,0,0,0,5.34-15.74c.38-3.69.38-7.86,3.05-10.45A4.5,4.5,0,0,1,864,738.1a4.64,4.64,0,0,1,4.3,2.67,13.69,13.69,0,0,1,1.2,5.2" transform="translate(-106.44 -138.07)"/><path class="cls-1" d="M851.88,750.52a17.13,17.13,0,0,1,12.54,2.35" transform="translate(-106.44 -138.07)"/><path class="cls-1" d="M911.17,750.52a9.92,9.92,0,0,1,4.31-4.51,5,5,0,0,1,5.81,1c1.16,1.42,1.15,3.44,1.08,5.28L922,763.25c-.09,2.21.06,4.86,2,6a4.1,4.1,0,0,0,4.17-.32,9.93,9.93,0,0,0,2.88-3.29,37.42,37.42,0,0,0,5.34-15.74c.38-3.69.38-7.86,3.05-10.45A4.5,4.5,0,0,1,942,738.1a4.64,4.64,0,0,1,4.3,2.67,13.69,13.69,0,0,1,1.2,5.2" transform="translate(-106.44 -138.07)"/><path class="cls-1" d="M929.88,750.52a17.13,17.13,0,0,1,12.54,2.35" transform="translate(-106.44 -138.07)"/><path class="cls-3" d="M856,729a14.45,14.45,0,0,1,1.36,4.78,8.09,8.09,0,0,1-10.52,8.16" transform="translate(-106.44 -138.07)"/><path class="cls-3" d="M894,729a14.45,14.45,0,0,1,1.36,4.78,8.09,8.09,0,0,1-10.52,8.16" transform="translate(-106.44 -138.07)"/><path class="cls-3" d="M934,729a14.45,14.45,0,0,1,1.36,4.78,8.09,8.09,0,0,1-10.52,8.16" transform="translate(-106.44 -138.07)"/><path class="cls-1" d="M872.81,750.75c1.19-2.56,3.22-5.58,6-5a4.47,4.47,0,0,1,2.94,2.58c1.21,2.5.89,5.45.39,8.18s-1.14,5.56-.5,8.26,3.08,5.23,5.84,4.89,4.47-3.29,5.25-6c2.14-7.43,1.21-16.13,6.14-22.07a6.59,6.59,0,0,1,4.21-2.61c3.43-.32,5.93,3.83,5.22,7.2S904.77,752,902,754a17.64,17.64,0,0,1,5.56,1.45l-6.7,4.29a16.72,16.72,0,0,1,6.9,2.35,21.66,21.66,0,0,0-3.55,8.54c-.45,2.52-.32,5.45,1.57,7.18,2.41,2.22,7.06.69,7.68-2.53" transform="translate(-106.44 -138.07)"/><polyline class="cls-1" points="847.06 606.42 849.06 600.42 871.06 600.42 873.06 606.42"/><path class="cls-1" d="M965.61,739.39a69.28,69.28,0,0,0-.35,8.64,6.2,6.2,0,0,1,5,1.25,12.8,12.8,0,0,1,3.32,4.05,14.07,14.07,0,0,1,1.3,2.94c1.33,4.56-1.29,9.8-5.56,11.89a12.72,12.72,0,0,1-13.36-1.9" transform="translate(-106.44 -138.07)"/><path class="cls-3" d="M964.16,773.73A11.81,11.81,0,0,0,963,777a3.23,3.23,0,0,0,0,1.8,3.57,3.57,0,0,0,1.71,1.56,3.94,3.94,0,0,0,1.3.56,2.86,2.86,0,0,0,1.91-.51,4.51,4.51,0,0,0,2.14-3.5,3.46,3.46,0,0,0-2.16-3.35" transform="translate(-106.44 -138.07)"/><text class="cls-2" transform="translate(756 670.97)">Badlit</text></g><g id="map-m8"><path class="cls-1" d="M814.4,522.08" transform="translate(-106.44 -138.07)"/><path class="cls-1" d="M814.4,522.08l-4.86,14.7" transform="translate(-106.44 -138.07)"/><path class="cls-1" d="M810.83,529.25c-4.6-.09-9.34,2.68-10.85,7s1,9.89,5.47,11c3,.75,6.1-.39,8.77-1.9a32.15,32.15,0,0,0,7.71-6.07c2-2.14,3.73-4.56,5.91-6.53s5-3.48,7.92-3.27c4.47.31,7.93,5,7.55,9.42s-4.06,8.26-8.38,9.45" transform="translate(-106.44 -138.07)"/><path class="cls-1" d="M914.4,522.08" transform="translate(-106.44 -138.07)"/><path class="cls-1" d="M914.4,522.08l-4.86,14.7" transform="translate(-106.44 -138.07)"/><path class="cls-1" d="M910.83,529.25c-4.6-.09-9.34,2.68-10.85,7s1,9.89,5.47,11c3,.75,6.1-.39,8.77-1.9a32.15,32.15,0,0,0,7.71-6.07c2-2.14,3.73-4.56,5.91-6.53s5-3.48,7.92-3.27c4.47.31,7.93,5,7.55,9.42s-4.06,8.26-8.38,9.45" transform="translate(-106.44 -138.07)"/><path class="cls-1" d="M862,520.4a10.75,10.75,0,0,0-8.67,4,14.17,14.17,0,0,0-3.06,9.2,6.68,6.68,0,0,0,1.66,4.82,6.6,6.6,0,0,0,3.5,1.48,16.91,16.91,0,0,0,15.49-5.8c2.43-2.94,3.81-6.66,6.37-9.47a14.69,14.69,0,0,1,9.55-4.7,8,8,0,0,1,4.4.69c2.48,1.31,3.61,4.32,3.66,7.12a12.74,12.74,0,0,1-7,11.72" transform="translate(-106.44 -138.07)"/><path class="cls-1" d="M869.14,536.48l-.08,6,7.23-.59a60.31,60.31,0,0,0-9.32,8.6,19.59,19.59,0,0,0,8.33-2l1.4.32A43.08,43.08,0,0,0,870.08,559a.78.78,0,0,1,.45-1" transform="translate(-106.44 -138.07)"/><path class="cls-1" d="M948,546.9c.54-6.75,2.68-13.6,7.34-18.51s12.18-7.41,18.47-4.93a29.17,29.17,0,0,1,4.27,2.28c3.23,2,6.59,4.07,8.49,7.35a20.39,20.39,0,0,1,2,5.5c.69,2.86,1.23,5.76,1.64,8.68" transform="translate(-106.44 -138.07)"/><path class="cls-1" d="M967.19,523.12c-1.34,2.33-2.72,5.13-1.6,7.57a4.44,4.44,0,0,0,6.73,1.32" transform="translate(-106.44 -138.07)"/><path class="cls-1" d="M959.31,533.33q-1.86,4.56-3.87,9.06a62.33,62.33,0,0,0,8.88-2l-8.16,9.29c3,.69,6.09-2.53,9.05-1.55a41.06,41.06,0,0,0-6.88,10.09" transform="translate(-106.44 -138.07)"/><line class="cls-3" x1="720.06" y1="384.43" x2="730.06" y2="377.43"/><line class="cls-3" x1="762.06" y1="384.43" x2="772.06" y2="377.43"/><line class="cls-3" x1="866.06" y1="418.43" x2="876.06" y2="411.43"/><line class="cls-3" x1="822.06" y1="384.43" x2="832.06" y2="377.43"/><text class="cls-2" transform="translate(723 446.97)">Basahan</text></g><g id="map-m9"><path class="cls-1" d="M775.89,347.22l5.65-1.69a3,3,0,0,1,2.24-.07,2.47,2.47,0,0,1,1,1.26c2,4.67-1.7,9.69-2.39,14.71-.29,2.14.08,4.55,1.71,6,2.2,1.89,5.75,1.1,7.9-.84s3.31-4.71,4.66-7.27a45.35,45.35,0,0,1,10.43-13.17c2.52-2.18,6.29-4.12,9-2.17,2.19,1.59,2.27,4.76,2.14,7.45" transform="translate(-106.44 -138.07)"/><path class="cls-1" d="M802.52,351.74a8.29,8.29,0,0,1,8,5.32" transform="translate(-106.44 -138.07)"/><path class="cls-1" d="M859.89,347.22l5.65-1.69a3,3,0,0,1,2.24-.07,2.47,2.47,0,0,1,1,1.26c2,4.67-1.7,9.69-2.39,14.71-.29,2.14.08,4.55,1.71,6,2.2,1.89,5.75,1.1,7.9-.84s3.31-4.71,4.66-7.27a45.35,45.35,0,0,1,10.43-13.17c2.52-2.18,6.29-4.12,9-2.17,2.19,1.59,2.27,4.76,2.14,7.45" transform="translate(-106.44 -138.07)"/><path class="cls-1" d="M886.52,351.74a8.29,8.29,0,0,1,8,5.32" transform="translate(-106.44 -138.07)"/><path class="cls-1" d="M825.11,337.91c-1.41,2.35-2.85,5.23-1.62,7.68,1,2,3.63,2.86,5.88,2.51a16.39,16.39,0,0,0,6.16-2.84l4.16-2.68a24.46,24.46,0,0,1,6.76-3.42,8.31,8.31,0,0,1,7.25,1.1c2,1.58,2.76,4.74,1.22,6.76" transform="translate(-106.44 -138.07)"/><path class="cls-1" d="M836.41,344.62l-3.61,7.93a60.75,60.75,0,0,1,7.24-.94l-1.26,7.56a30.91,30.91,0,0,1-.87,4,15.1,15.1,0,0,1-10.3,9.87" transform="translate(-106.44 -138.07)"/><path class="cls-1" d="M904.79,368.73c-1.47-2.92-.6-6.44.37-9.57,1.27-4.08,2.72-8.23,5.45-11.52a17.68,17.68,0,0,1,28.2,1.35c3.84,5.64,4.1,12.9,4.24,19.72l.35-1.31" transform="translate(-106.44 -138.07)"/><path class="cls-1" d="M922.19,342.46a26.6,26.6,0,0,1-3,9.6,80.28,80.28,0,0,1,8.21-.57,48.06,48.06,0,0,0-8,9.23l7.4-1q-3,5.24-5.81,10.6" transform="translate(-106.44 -138.07)"/><path class="cls-4" d="M813.32,332.36" transform="translate(-106.44 -138.07)"/><path d="M813.56,335.82c3.22,0,3.22-5,0-5s-3.22,5,0,5Z" transform="translate(-106.44 -138.07)"/><path d="M845.56,335.82c3.22,0,3.22-5,0-5s-3.22,5,0,5Z" transform="translate(-106.44 -138.07)"/><path d="M933.56,373.82c3.22,0,3.22-5,0-5s-3.22,5,0,5Z" transform="translate(-106.44 -138.07)"/><path d="M897.56,335.82c3.22,0,3.22-5,0-5s-3.22,5,0,5Z" transform="translate(-106.44 -138.07)"/><text class="cls-2" transform="translate(687 262.97)">Baybayin</text><text class="cls-2" transform="translate(629 113.97)">Kurdita</text></g><g id="map-m10"><path class="cls-1" d="M715.82,202a24.08,24.08,0,0,0-1.82,6.73,8.42,8.42,0,0,0,2,6.47c2.35,2.41,6.41,2.47,9.37.86s5-4.57,6.37-7.63,2.36-6.32,3.84-9.35a28.92,28.92,0,0,1,12-12.51" transform="translate(-106.44 -138.07)"/><path class="cls-1" d="M733.18,206.8A121.87,121.87,0,0,1,746.12,216" transform="translate(-106.44 -138.07)"/><path class="cls-1" d="M783.82,202a24.08,24.08,0,0,0-1.82,6.73,8.42,8.42,0,0,0,2,6.47c2.35,2.41,6.41,2.47,9.37.86s5-4.57,6.37-7.63,2.36-6.32,3.84-9.35a28.92,28.92,0,0,1,12-12.51" transform="translate(-106.44 -138.07)"/><path class="cls-1" d="M801.18,206.8A121.87,121.87,0,0,1,814.12,216" transform="translate(-106.44 -138.07)"/><path class="cls-1" d="M747.22,196.75c-.75,3.48-1,7.66,1.63,10,3,2.67,8,1.24,10.69-1.68s4-6.87,5.89-10.4a30.69,30.69,0,0,1,8.37-9.86,12.63,12.63,0,0,1,4.88-2.51,5.88,5.88,0,0,1,5.19,1.2c2.3,2.14,1.81,5.84,1.14,8.91" transform="translate(-106.44 -138.07)"/><path class="cls-1" d="M766.5,194.14a71.93,71.93,0,0,1,7,5.39c-2,1.86-4.18,3.64-6.38,5.31a17.52,17.52,0,0,1,7.29,1.71,29,29,0,0,1-8.68,4.47" transform="translate(-106.44 -138.07)"/><path class="cls-1" d="M766.17,211.44a6.68,6.68,0,0,0,6.35,8.63" transform="translate(-106.44 -138.07)"/><path class="cls-1" d="M817.24,209.75a6.33,6.33,0,0,0,9.91,5.09c3.28-2.23,3.73-6.78,4.18-10.73a75,75,0,0,1,1.73-9.65c.75-3,1.75-6.09,3.9-8.31s5.76-3.33,8.43-1.77a7.55,7.55,0,0,1,3.28,5.25,31.49,31.49,0,0,1,.17,6.37,50.44,50.44,0,0,0,1.93,14.86c.63,2.21,1.57,4.58,3.61,5.64s4.65.44,6.49-.94a18.64,18.64,0,0,0,4.33-5.35" transform="translate(-106.44 -138.07)"/><path class="cls-1" d="M841.05,185.49a101,101,0,0,1-4.81,24.78l8.46,1a9.38,9.38,0,0,0,0,14.24" transform="translate(-106.44 -138.07)"/><line class="cls-3" x1="627.06" y1="47.43" x2="637.06" y2="40.43"/><line class="cls-3" x1="651.06" y1="47.43" x2="661.06" y2="40.43"/><line class="cls-3" x1="695.06" y1="47.43" x2="705.06" y2="40.43"/><line class="cls-3" x1="743.06" y1="90.43" x2="753.06" y2="83.43"/></g></svg>